<svg width="279" height="428" viewBox="0 0 279 428" fill="none" xmlns="http://www.w3.org/2000/svg">
<g clip-path="url(#clip0_2086_6682)">
<path d="M30.9545 206.423C29.5485 193.878 39.3666 182.898 51.991 182.898H229.03C241.655 182.898 251.473 193.878 250.067 206.423L227.292 409.628C226.092 420.339 217.035 428.437 206.256 428.437H74.7657C63.9868 428.437 54.9292 420.339 53.729 409.628L30.9545 206.423Z" fill="#5EA143"/>
<mask id="mask0_2086_6682" style="mask-type:alpha" maskUnits="userSpaceOnUse" x="30" y="182" width="221" height="247">
<path d="M30.9545 206.423C29.5485 193.878 39.3666 182.898 51.991 182.898H229.03C241.655 182.898 251.473 193.878 250.067 206.423L227.292 409.628C226.092 420.339 217.035 428.437 206.256 428.437H74.7657C63.9868 428.437 54.9292 420.339 53.729 409.628L30.9545 206.423Z" fill="#5EA143"/>
</mask>
<g mask="url(#mask0_2086_6682)">
<path d="M81.502 182.898C81.502 182.898 98.1738 364.936 216.717 427.747V444.101H49.527L19.8506 182.898H81.502Z" fill="url(#paint0_linear_2086_6682)"/>
</g>
<path d="M180.731 239.203H100.291C93.276 239.203 87.5896 244.889 87.5896 251.903C87.5896 258.918 93.276 264.604 100.291 264.604H180.731C187.745 264.604 193.432 258.918 193.432 251.903C193.432 244.889 187.745 239.203 180.731 239.203Z" fill="white"/>
<path d="M180.731 345.461H100.291C93.276 345.461 87.5896 351.147 87.5896 358.161C87.5896 365.175 93.276 370.862 100.291 370.862H180.731C187.745 370.862 193.432 365.175 193.432 358.161C193.432 351.147 187.745 345.461 180.731 345.461Z" fill="white"/>
<path d="M94.2716 337.666L141.98 280.309C146.002 275.474 151.965 272.678 158.255 272.678H185.732L140.149 329.714C136.132 334.74 130.047 337.666 123.612 337.666H94.2716Z" fill="white"/>
<path d="M27.6952 159.96C27.7611 152.946 33.5006 147.314 40.5148 147.38L239.486 149.259C246.5 149.325 252.133 155.064 252.067 162.078C252.002 169.092 246.262 174.724 239.248 174.658L40.2763 172.78C33.2621 172.714 27.6293 166.975 27.6952 159.96Z" fill="#5EA143"/>
<path d="M96.5599 127.24C100.586 121.714 107.032 118.474 113.867 118.539L166.166 119.032C173.003 119.097 179.387 122.458 183.308 128.058L197.948 148.968L81.5289 147.869L96.5599 127.24Z" fill="#5EA143"/>
<mask id="mask1_2086_6682" style="mask-type:alpha" maskUnits="userSpaceOnUse" x="81" y="118" width="117" height="31">
<path d="M96.5599 127.24C100.586 121.714 107.032 118.474 113.867 118.539L166.166 119.032C173.003 119.097 179.387 122.458 183.308 128.058L197.948 148.968L81.5289 147.869L96.5599 127.24Z" fill="#5EA143"/>
</mask>
<g mask="url(#mask1_2086_6682)">
<path d="M92.3856 126.466C96.0838 119.717 103.154 115.506 110.851 115.471L179.691 115.152L61.8362 250.4L81.875 145.65L92.3856 126.466Z" fill="url(#paint1_linear_2086_6682)"/>
</g>
</g>
<defs>
<linearGradient id="paint0_linear_2086_6682" x1="118.284" y1="182.898" x2="118.284" y2="444.101" gradientUnits="userSpaceOnUse">
<stop stop-color="#5EA143"/>
<stop offset="1" stop-color="#AFC000"/>
</linearGradient>
<linearGradient id="paint1_linear_2086_6682" x1="151.294" y1="90.4755" x2="100.499" y2="153.733" gradientUnits="userSpaceOnUse">
<stop stop-color="#5EA143"/>
<stop offset="1" stop-color="#AFC000"/>
</linearGradient>
<clipPath id="clip0_2086_6682">
<rect width="279" height="428" fill="white"/>
</clipPath>
</defs>
</svg>
