<svg width="279" height="428" viewBox="0 0 279 428" fill="none" xmlns="http://www.w3.org/2000/svg">
<g clip-path="url(#clip0_2086_4648)">
<path d="M29.9218 205.986C28.5158 193.44 38.334 182.461 50.9584 182.461H227.998C240.622 182.461 250.44 193.44 249.034 205.986L226.26 409.19C225.059 419.901 216.002 428 205.223 428H73.7331C62.9541 428 53.8966 419.901 52.6963 409.19L29.9218 205.986Z" fill="#5EA143"/>
<mask id="mask0_2086_4648" style="mask-type:alpha" maskUnits="userSpaceOnUse" x="29" y="182" width="221" height="246">
<path d="M29.9218 205.986C28.5158 193.44 38.334 182.461 50.9584 182.461H227.998C240.622 182.461 250.44 193.44 249.034 205.986L226.26 409.19C225.059 419.901 216.002 428 205.223 428H73.7331C62.9541 428 53.8966 419.901 52.6963 409.19L29.9218 205.986Z" fill="#5EA143"/>
</mask>
<g mask="url(#mask0_2086_4648)">
<path d="M80.4693 182.461C80.4693 182.461 97.1411 364.498 215.684 427.31V443.664H48.4943L18.8179 182.461H80.4693Z" fill="url(#paint0_linear_2086_4648)"/>
</g>
<path d="M179.698 238.766H99.2579C92.2433 238.766 86.5569 244.452 86.5569 251.466C86.5569 258.48 92.2433 264.166 99.2579 264.166H179.698C186.713 264.166 192.399 258.48 192.399 251.466C192.399 244.452 186.713 238.766 179.698 238.766Z" fill="white"/>
<path d="M179.698 345.023H99.2579C92.2433 345.023 86.5569 350.71 86.5569 357.724C86.5569 364.738 92.2433 370.424 99.2579 370.424H179.698C186.713 370.424 192.399 364.738 192.399 357.724C192.399 350.71 186.713 345.023 179.698 345.023Z" fill="white"/>
<path d="M93.2389 337.231L140.947 279.874C144.969 275.039 150.933 272.242 157.222 272.242H184.699L139.116 329.278C135.099 334.304 129.014 337.231 122.58 337.231H93.2389Z" fill="white"/>
<path d="M26.6576 160.434C26.6666 153.42 32.3602 147.741 39.3746 147.75L238.355 148.013C245.369 148.022 251.048 153.716 251.039 160.73C251.031 167.745 245.337 173.423 238.323 173.414L39.3424 173.152C32.3279 173.142 26.6487 167.449 26.6576 160.434Z" fill="#5EA143"/>
<path d="M95.2544 127.154C99.2351 121.596 105.655 118.303 112.491 118.313L164.792 118.381C171.629 118.391 178.04 121.7 182.006 127.268L196.816 148.058L80.3914 147.905L95.2544 127.154Z" fill="#5EA143"/>
<mask id="mask1_2086_4648" style="mask-type:alpha" maskUnits="userSpaceOnUse" x="80" y="118" width="117" height="31">
<path d="M95.2544 127.154C99.2351 121.596 105.655 118.303 112.491 118.313L164.792 118.381C171.629 118.391 178.04 121.7 182.006 127.268L196.816 148.058L80.3914 147.905L95.2544 127.154Z" fill="#5EA143"/>
</mask>
<g mask="url(#mask1_2086_4648)">
<path d="M91.0739 126.414C94.7172 119.635 101.753 115.367 109.449 115.269L178.284 114.392L61.5317 250.592L80.7194 145.683L91.0739 126.414Z" fill="url(#paint1_linear_2086_4648)"/>
</g>
</g>
<defs>
<linearGradient id="paint0_linear_2086_4648" x1="117.251" y1="182.461" x2="117.251" y2="443.664" gradientUnits="userSpaceOnUse">
<stop stop-color="#5EA143"/>
<stop offset="1" stop-color="#AFC000"/>
</linearGradient>
<linearGradient id="paint1_linear_2086_4648" x1="149.689" y1="89.9465" x2="99.4079" y2="153.614" gradientUnits="userSpaceOnUse">
<stop stop-color="#5EA143"/>
<stop offset="1" stop-color="#AFC000"/>
</linearGradient>
<clipPath id="clip0_2086_4648">
<rect width="279" height="428" fill="white"/>
</clipPath>
</defs>
</svg>
