<svg width="279" height="428" viewBox="0 0 279 428" fill="none" xmlns="http://www.w3.org/2000/svg">
<path d="M29.946 205.577C28.54 193.032 38.3581 182.053 50.9826 182.053H228.022C240.646 182.053 250.465 193.032 249.058 205.577L226.284 408.782C225.084 419.493 216.026 427.592 205.247 427.592H73.7573C62.9783 427.592 53.9207 419.493 52.7205 408.782L29.946 205.577Z" fill="#5EA143"/>
<mask id="mask0_2086_6166" style="mask-type:alpha" maskUnits="userSpaceOnUse" x="29" y="182" width="221" height="246">
<path d="M29.946 205.577C28.54 193.032 38.3581 182.053 50.9826 182.053H228.022C240.646 182.053 250.465 193.032 249.058 205.577L226.284 408.782C225.084 419.493 216.026 427.592 205.247 427.592H73.7573C62.9783 427.592 53.9207 419.493 52.7205 408.782L29.946 205.577Z" fill="#5EA143"/>
</mask>
<g mask="url(#mask0_2086_6166)">
<path d="M80.4934 182.053C80.4934 182.053 97.1653 364.09 215.709 426.902V443.255H48.5185L18.842 182.053H80.4934Z" fill="url(#paint0_linear_2086_6166)"/>
</g>
<path d="M179.722 238.357H99.2822C92.2676 238.357 86.5812 244.044 86.5812 251.058C86.5812 258.072 92.2676 263.758 99.2822 263.758H179.722C186.737 263.758 192.423 258.072 192.423 251.058C192.423 244.044 186.737 238.357 179.722 238.357Z" fill="white"/>
<path d="M179.722 344.617H99.2822C92.2676 344.617 86.5812 350.303 86.5812 357.317C86.5812 364.332 92.2676 370.018 99.2822 370.018H179.722C186.737 370.018 192.423 364.332 192.423 357.317C192.423 350.303 186.737 344.617 179.722 344.617Z" fill="white"/>
<path d="M93.2632 336.823L140.971 279.466C144.993 274.631 150.957 271.834 157.246 271.834H184.724L139.14 328.87C135.123 333.896 129.038 336.823 122.604 336.823H93.2632Z" fill="white"/>
<path d="M26.9756 152.059C27.4828 145.063 33.5653 139.803 40.5614 140.31L239.02 154.705C246.016 155.212 251.277 161.295 250.77 168.291C250.263 175.287 244.18 180.546 237.184 180.039L38.7251 165.645C31.729 165.137 26.4686 159.055 26.9756 152.059Z" fill="#5EA143"/>
<path d="M97.7629 123.737C102.128 118.475 108.765 115.647 115.583 116.142L167.748 119.925C174.567 120.42 180.726 124.176 184.287 130.012L197.583 151.801L81.4636 143.379L97.7629 123.737Z" fill="#5EA143"/>
<mask id="mask1_2086_6166" style="mask-type:alpha" maskUnits="userSpaceOnUse" x="81" y="116" width="117" height="36">
<path d="M97.7629 123.737C102.128 118.475 108.765 115.647 115.583 116.142L167.748 119.925C174.567 120.42 180.726 124.176 184.287 130.012L197.583 151.801L81.4636 143.379L97.7629 123.737Z" fill="#5EA143"/>
</mask>
<g mask="url(#mask1_2086_6166)">
<path d="M93.6455 122.701C97.7611 116.198 105.082 112.441 112.766 112.889L181.49 116.903L55.3582 244.467L81.9486 141.185L93.6455 122.701Z" fill="url(#paint1_linear_2086_6166)"/>
</g>
<defs>
<linearGradient id="paint0_linear_2086_6166" x1="117.275" y1="182.053" x2="117.275" y2="443.255" gradientUnits="userSpaceOnUse">
<stop stop-color="#5EA143"/>
<stop offset="1" stop-color="#AFC000"/>
</linearGradient>
<linearGradient id="paint1_linear_2086_6166" x1="154.702" y1="90.4884" x2="100.027" y2="150.424" gradientUnits="userSpaceOnUse">
<stop stop-color="#5EA143"/>
<stop offset="1" stop-color="#AFC000"/>
</linearGradient>
</defs>
</svg>
