<svg width="279" height="428" viewBox="0 0 279 428" fill="none" xmlns="http://www.w3.org/2000/svg">
<g clip-path="url(#clip0_2086_7452)">
<path d="M45.0692 179.591C51.6211 172.119 62.989 171.373 70.4606 177.924L130.672 230.717C138.144 237.268 138.89 248.636 132.338 256.107C125.786 263.579 114.418 264.325 106.947 257.774L46.735 204.981C39.2634 198.43 38.5175 187.063 45.0692 179.591Z" fill="#B9A8A9"/>
<path d="M89.6913 138.509C96.2432 131.037 107.611 130.291 115.083 136.842L175.294 189.635C182.766 196.186 183.512 207.554 176.96 215.025C170.408 222.497 159.04 223.243 151.569 216.692L91.3572 163.899C83.8856 157.348 83.1398 145.98 89.6913 138.509Z" fill="#B9A8A9"/>
<path d="M180.034 149.525C181.766 148.043 246.557 93.2463 260.236 102.621C272.331 110.91 259.186 127.364 250.056 137.82C242.254 146.755 193.417 196.842 189.803 221.094C186.912 240.495 130.387 249.986 102.485 252.307C108.11 212.47 131.494 136.141 180.034 149.525Z" fill="#B9A8A9"/>
<path d="M45.0692 179.591C51.6211 172.119 62.989 171.373 70.4606 177.924L130.672 230.717C138.144 237.268 138.89 248.636 132.338 256.107C125.786 263.579 114.418 264.325 106.947 257.774L46.735 204.981C39.2634 198.43 38.5175 187.063 45.0692 179.591Z" stroke="#B9A8A9"/>
<path d="M89.6913 138.509C96.2432 131.037 107.611 130.291 115.083 136.842L175.294 189.635C182.766 196.186 183.512 207.554 176.96 215.025C170.408 222.497 159.04 223.243 151.569 216.692L91.3572 163.899C83.8856 157.348 83.1398 145.98 89.6913 138.509Z" stroke="#B9A8A9"/>
<path d="M180.034 149.525C181.766 148.043 246.557 93.2463 260.236 102.621C272.331 110.91 259.186 127.364 250.056 137.82C242.254 146.755 193.417 196.842 189.803 221.094C186.912 240.495 130.387 249.986 102.485 252.307C108.11 212.47 131.494 136.141 180.034 149.525Z" stroke="#B9A8A9"/>
<mask id="mask0_2086_7452" style="mask-type:alpha" maskUnits="userSpaceOnUse" x="40" y="101" width="226" height="162">
<path d="M45.0693 179.591C51.6212 172.119 62.9891 171.373 70.4607 177.924L130.672 230.717C138.144 237.268 138.89 248.636 132.338 256.107C125.786 263.579 114.418 264.325 106.947 257.774L46.7352 204.981C39.2635 198.43 38.5177 187.063 45.0693 179.591Z" fill="#B9A8A9"/>
<path d="M89.6913 138.509C96.2432 131.037 107.611 130.291 115.083 136.842L175.294 189.635C182.766 196.186 183.512 207.554 176.96 215.025C170.408 222.497 159.04 223.243 151.569 216.692L91.3572 163.899C83.8856 157.348 83.1398 145.98 89.6913 138.509Z" fill="#B9A8A9"/>
<path d="M180.034 149.525C181.766 148.043 246.557 93.2463 260.236 102.621C272.331 110.91 259.186 127.364 250.056 137.82C242.254 146.755 193.417 196.842 189.803 221.094C186.912 240.495 130.387 249.986 102.485 252.307C108.11 212.47 131.494 136.141 180.034 149.525Z" fill="#B9A8A9"/>
<path d="M45.0693 179.591C51.6212 172.119 62.9891 171.373 70.4607 177.924L130.672 230.717C138.144 237.268 138.89 248.636 132.338 256.107C125.786 263.579 114.418 264.325 106.947 257.774L46.7352 204.981C39.2635 198.43 38.5177 187.063 45.0693 179.591Z" stroke="#B9A8A9"/>
<path d="M89.6913 138.509C96.2432 131.037 107.611 130.291 115.083 136.842L175.294 189.635C182.766 196.186 183.512 207.554 176.96 215.025C170.408 222.497 159.04 223.243 151.569 216.692L91.3572 163.899C83.8856 157.348 83.1398 145.98 89.6913 138.509Z" stroke="#B9A8A9"/>
<path d="M180.034 149.525C181.766 148.043 246.557 93.2463 260.236 102.621C272.331 110.91 259.186 127.364 250.056 137.82C242.254 146.755 193.417 196.842 189.803 221.094C186.912 240.495 130.387 249.986 102.485 252.307C108.11 212.47 131.494 136.141 180.034 149.525Z" stroke="#B9A8A9"/>
</mask>
<g mask="url(#mask0_2086_7452)">
<path d="M76.8186 141.423C82.4937 198.643 120.415 235.288 196.068 231.659L197.745 236.596L68.966 280.322L27.4904 158.172L76.8186 141.423Z" fill="url(#paint0_linear_2086_7452)"/>
<path d="M101.539 123.286C96.6801 138.004 99.341 145.841 121.877 168.669L103.315 183.117L78.5091 152.914C78.5091 152.914 106.398 108.567 101.539 123.286Z" fill="url(#paint1_linear_2086_7452)"/>
<path d="M216.346 118.865L261.089 123.568L276.947 110.36L252.287 93.6963L216.346 118.865Z" fill="#575050"/>
</g>
<path d="M157.216 181.755C172.67 178.553 182.603 163.429 179.402 147.975C176.2 132.522 161.076 122.59 145.621 125.792C130.167 128.994 120.234 144.118 123.436 159.571C126.637 175.025 141.761 184.957 157.216 181.755Z" fill="url(#paint2_linear_2086_7452)"/>
<mask id="mask1_2086_7452" style="mask-type:alpha" maskUnits="userSpaceOnUse" x="122" y="125" width="58" height="58">
<path d="M157.201 181.751C172.655 178.545 182.59 163.418 179.392 147.963C176.194 132.509 161.074 122.579 145.62 125.785C130.166 128.991 120.231 144.118 123.429 159.573C126.627 175.027 141.747 184.957 157.201 181.751Z" fill="url(#paint3_linear_2086_7452)"/>
</mask>
<g mask="url(#mask1_2086_7452)">
<path d="M143.531 204.471C160.702 200.909 171.741 184.101 168.188 166.929C164.635 149.757 147.834 138.725 130.663 142.287C113.493 145.849 102.453 162.657 106.007 179.828C109.56 197 126.36 208.033 143.531 204.471Z" fill="white"/>
</g>
<path d="M113.534 218.962C128.989 215.76 138.922 200.636 135.72 185.182C132.518 169.729 117.395 159.797 101.94 162.999C86.4853 166.201 76.5524 181.325 79.7542 196.778C82.9559 212.232 98.0799 222.164 113.534 218.962Z" fill="url(#paint4_linear_2086_7452)"/>
<mask id="mask2_2086_7452" style="mask-type:alpha" maskUnits="userSpaceOnUse" x="79" y="162" width="58" height="58">
<path d="M113.519 218.958C128.973 215.752 138.909 200.625 135.711 185.17C132.513 169.716 117.392 159.786 101.938 162.992C86.4846 166.198 76.5493 181.325 79.7473 196.78C82.9454 212.234 98.0657 222.164 113.519 218.958Z" fill="url(#paint5_linear_2086_7452)"/>
</mask>
<g mask="url(#mask2_2086_7452)">
<path d="M99.8494 241.678C117.02 238.116 128.06 221.308 124.506 204.136C120.953 186.964 104.152 175.932 86.9815 179.494C69.8106 183.056 58.7714 199.864 62.3248 217.035C65.8782 234.207 82.6785 245.24 99.8494 241.678Z" fill="white"/>
</g>
<path d="M114.074 193.603C119.055 191.912 121.723 186.502 120.031 181.521C118.34 176.54 112.93 173.873 107.949 175.564C102.967 177.256 100.3 182.665 101.991 187.646C103.683 192.628 109.092 195.295 114.074 193.603Z" fill="black"/>
<path d="M150.587 162.877C155.568 161.185 158.236 155.776 156.544 150.794C154.853 145.813 149.443 143.146 144.462 144.838C139.48 146.529 136.813 151.939 138.504 156.92C140.196 161.901 145.605 164.568 150.587 162.877Z" fill="black"/>
<path d="M25.9218 205.986C24.5158 193.44 34.334 182.461 46.9584 182.461H223.998C236.622 182.461 246.44 193.44 245.034 205.986L222.26 409.19C221.059 419.901 212.002 428 201.223 428H69.7331C58.9541 428 49.8966 419.901 48.6963 409.19L25.9218 205.986Z" fill="#5EA143"/>
<mask id="mask3_2086_7452" style="mask-type:alpha" maskUnits="userSpaceOnUse" x="25" y="182" width="221" height="246">
<path d="M25.9218 205.986C24.5158 193.44 34.334 182.461 46.9584 182.461H223.998C236.622 182.461 246.44 193.44 245.034 205.986L222.26 409.19C221.059 419.901 212.002 428 201.223 428H69.7331C58.9541 428 49.8966 419.901 48.6963 409.19L25.9218 205.986Z" fill="#5EA143"/>
</mask>
<g mask="url(#mask3_2086_7452)">
<path d="M76.4693 182.461C76.4693 182.461 93.1411 364.498 211.684 427.31V443.664H44.4943L14.8179 182.461H76.4693Z" fill="url(#paint6_linear_2086_7452)"/>
</g>
<path d="M175.698 238.766H95.2579C88.2433 238.766 82.5569 244.452 82.5569 251.466C82.5569 258.48 88.2433 264.166 95.2579 264.166H175.698C182.713 264.166 188.399 258.48 188.399 251.466C188.399 244.452 182.713 238.766 175.698 238.766Z" fill="white"/>
<path d="M175.698 345.023H95.2579C88.2433 345.023 82.5569 350.71 82.5569 357.724C82.5569 364.738 88.2433 370.424 95.2579 370.424H175.698C182.713 370.424 188.399 364.738 188.399 357.724C188.399 350.71 182.713 345.023 175.698 345.023Z" fill="white"/>
<path d="M89.2389 337.229L136.947 279.872C140.969 275.037 146.933 272.24 153.222 272.24H180.699L135.116 329.276C131.099 334.302 125.014 337.229 118.58 337.229H89.2389Z" fill="white"/>
<path d="M24.2132 165.286C21.21 158.947 23.9143 151.374 30.2535 148.371L210.078 63.1863C216.417 60.1833 223.99 62.8876 226.993 69.2264C229.997 75.5653 227.292 83.1383 220.953 86.1413L41.1291 171.326C34.7899 174.329 27.2164 171.625 24.2132 165.286Z" fill="#5EA143"/>
<path d="M71.8804 105.782C73.0896 99.0534 77.4738 93.3235 83.6518 90.3972L130.918 68.0063C137.096 65.0797 144.308 65.3167 150.28 68.6427L172.581 81.0614L67.365 130.904L71.8804 105.782Z" fill="#5EA143"/>
<mask id="mask4_2086_7452" style="mask-type:alpha" maskUnits="userSpaceOnUse" x="67" y="65" width="106" height="66">
<path d="M71.8804 105.782C73.0896 99.0534 77.4738 93.3235 83.6518 90.3972L130.918 68.0063C137.096 65.0797 144.308 65.3167 150.28 68.6427L172.581 81.0614L67.365 130.904L71.8804 105.782Z" fill="#5EA143"/>
</mask>
<g mask="url(#mask4_2086_7452)">
<path d="M67.7872 106.908C68.1672 99.2213 72.6897 92.3466 79.5985 88.954L141.391 58.6104L94.4153 231.744L66.7072 128.756L67.7872 106.908Z" fill="url(#paint7_linear_2086_7452)"/>
</g>
</g>
<defs>
<linearGradient id="paint0_linear_2086_7452" x1="90.7616" y1="133.015" x2="133.355" y2="258.459" gradientUnits="userSpaceOnUse">
<stop stop-color="#B9A8A9"/>
<stop offset="1" stop-color="#575050"/>
</linearGradient>
<linearGradient id="paint1_linear_2086_7452" x1="86.654" y1="125.41" x2="132.823" y2="261.384" gradientUnits="userSpaceOnUse">
<stop stop-color="#B9A8A9"/>
<stop offset="1" stop-color="#575050"/>
</linearGradient>
<linearGradient id="paint2_linear_2086_7452" x1="145.969" y1="170.25" x2="173.601" y2="119.992" gradientUnits="userSpaceOnUse">
<stop stop-color="white"/>
<stop offset="1" stop-color="#B9A8A9"/>
</linearGradient>
<linearGradient id="paint3_linear_2086_7452" x1="158.915" y1="152.427" x2="177.696" y2="112.64" gradientUnits="userSpaceOnUse">
<stop stop-color="white"/>
<stop offset="1" stop-color="#B9A8A9"/>
</linearGradient>
<linearGradient id="paint4_linear_2086_7452" x1="102.288" y1="207.457" x2="129.92" y2="157.199" gradientUnits="userSpaceOnUse">
<stop stop-color="white"/>
<stop offset="1" stop-color="#B9A8A9"/>
</linearGradient>
<linearGradient id="paint5_linear_2086_7452" x1="115.234" y1="189.634" x2="134.015" y2="149.847" gradientUnits="userSpaceOnUse">
<stop stop-color="white"/>
<stop offset="1" stop-color="#B9A8A9"/>
</linearGradient>
<linearGradient id="paint6_linear_2086_7452" x1="113.251" y1="182.461" x2="113.251" y2="443.664" gradientUnits="userSpaceOnUse">
<stop stop-color="#5EA143"/>
<stop offset="1" stop-color="#AFC000"/>
</linearGradient>
<linearGradient id="paint7_linear_2086_7452" x1="105.07" y1="48.8087" x2="86.991" y2="127.896" gradientUnits="userSpaceOnUse">
<stop stop-color="#5EA143"/>
<stop offset="1" stop-color="#AFC000"/>
</linearGradient>
<clipPath id="clip0_2086_7452">
<rect width="279" height="428" fill="white"/>
</clipPath>
</defs>
</svg>
