<svg width="279" height="428" viewBox="0 0 279 428" fill="none" xmlns="http://www.w3.org/2000/svg">
<g clip-path="url(#clip0_2086_6800)">
<path d="M40.5489 338.948C42.1741 329.144 51.4384 322.514 61.2415 324.139L140.242 337.229C150.046 338.854 156.675 348.118 155.05 357.921C153.425 367.725 144.161 374.355 134.358 372.731L55.3569 359.64C45.5538 358.016 38.9239 348.752 40.5489 338.948Z" fill="#B9A8A9"/>
<path d="M56.7888 280.509C58.414 270.705 67.6784 264.075 77.4814 265.699L156.482 278.79C166.285 280.414 172.915 289.679 171.29 299.482C169.665 309.286 160.401 315.916 150.598 314.291L71.5968 301.201C61.7938 299.576 55.1639 290.312 56.7888 280.509Z" fill="#B9A8A9"/>
<path d="M139.351 242.214C140.041 240.041 166.182 159.312 182.747 160.061C197.396 160.724 194.907 181.636 192.666 195.335C190.75 207.041 175.68 275.354 185.402 297.864C193.18 315.871 150.164 353.751 127.683 370.44C111.448 333.629 91.0533 256.448 139.351 242.214Z" fill="#B9A8A9"/>
<path d="M40.5489 338.948C42.1741 329.144 51.4384 322.514 61.2415 324.139L140.242 337.229C150.046 338.854 156.675 348.118 155.05 357.921C153.425 367.725 144.161 374.355 134.358 372.731L55.3569 359.64C45.5538 358.016 38.9239 348.752 40.5489 338.948Z" stroke="#B9A8A9"/>
<path d="M56.7888 280.509C58.414 270.705 67.6784 264.075 77.4814 265.699L156.482 278.79C166.285 280.414 172.915 289.679 171.29 299.482C169.665 309.286 160.401 315.916 150.598 314.291L71.5968 301.201C61.7938 299.576 55.1639 290.312 56.7888 280.509Z" stroke="#B9A8A9"/>
<path d="M139.351 242.214C140.041 240.041 166.182 159.312 182.747 160.061C197.396 160.724 194.907 181.636 192.666 195.335C190.75 207.041 175.68 275.354 185.402 297.864C193.18 315.871 150.164 353.751 127.683 370.44C111.448 333.629 91.0533 256.448 139.351 242.214Z" stroke="#B9A8A9"/>
<mask id="mask0_2086_6800" style="mask-type:alpha" maskUnits="userSpaceOnUse" x="39" y="159" width="156" height="215">
<path d="M40.5491 338.948C42.1742 329.144 51.4386 322.514 61.2416 324.139L140.243 337.229C150.046 338.854 156.675 348.118 155.051 357.921C153.425 367.725 144.161 374.355 134.358 372.731L55.357 359.64C45.5539 358.016 38.924 348.752 40.5491 338.948Z" fill="#B9A8A9"/>
<path d="M56.7888 280.509C58.4139 270.705 67.6783 264.075 77.4814 265.699L156.482 278.79C166.285 280.414 172.915 289.679 171.29 299.482C169.665 309.286 160.401 315.916 150.598 314.291L71.5968 301.201C61.7937 299.576 55.1639 290.312 56.7888 280.509Z" fill="#B9A8A9"/>
<path d="M139.351 242.214C140.041 240.041 166.182 159.312 182.748 160.061C197.396 160.724 194.907 181.636 192.666 195.335C190.75 207.041 175.68 275.354 185.402 297.864C193.18 315.871 150.164 353.751 127.683 370.44C111.449 333.629 91.0536 256.448 139.351 242.214Z" fill="#B9A8A9"/>
<path d="M40.5491 338.948C42.1742 329.144 51.4386 322.514 61.2416 324.139L140.243 337.229C150.046 338.854 156.675 348.118 155.051 357.921C153.425 367.725 144.161 374.355 134.358 372.731L55.357 359.64C45.5539 358.016 38.924 348.752 40.5491 338.948Z" stroke="#B9A8A9"/>
<path d="M56.7888 280.509C58.4139 270.705 67.6783 264.075 77.4814 265.699L156.482 278.79C166.285 280.414 172.915 289.679 171.29 299.482C169.665 309.286 160.401 315.916 150.598 314.291L71.5968 301.201C61.7937 299.576 55.1639 290.312 56.7888 280.509Z" stroke="#B9A8A9"/>
<path d="M139.351 242.214C140.041 240.041 166.182 159.312 182.748 160.061C197.396 160.724 194.907 181.636 192.666 195.335C190.75 207.041 175.68 275.354 185.402 297.864C193.18 315.871 150.164 353.751 127.683 370.44C111.449 333.629 91.0536 256.448 139.351 242.214Z" stroke="#B9A8A9"/>
</mask>
<g mask="url(#mask0_2086_6800)">
<path d="M47.3887 289.774C82.3928 335.394 133.938 346.523 196.297 303.535L200.326 306.845L113.984 411.921L14.3158 330.023L47.3887 289.774Z" fill="url(#paint0_linear_2086_6800)"/>
<path d="M58.8241 261.326C62.4596 276.394 68.854 281.648 100.041 289.154L91.8921 311.22L54.8869 298.646C54.8869 298.646 55.1887 246.259 58.8241 261.326Z" fill="url(#paint1_linear_2086_6800)"/>
<path d="M154.028 197.013L194.521 177.408L201.027 157.821L171.287 156.672L154.028 197.013Z" fill="#575050"/>
</g>
<path d="M136.967 281.631C148.407 270.759 148.869 252.671 137.997 241.23C127.125 229.79 109.038 229.33 97.597 240.202C86.1563 251.075 85.695 269.163 96.5666 280.603C107.438 292.043 125.526 292.503 136.967 281.631Z" fill="url(#paint2_linear_2086_6800)"/>
<mask id="mask1_2086_6800" style="mask-type:alpha" maskUnits="userSpaceOnUse" x="88" y="232" width="58" height="58">
<path d="M136.952 281.637C148.39 270.762 148.851 252.67 137.982 241.227C127.114 229.784 109.03 229.324 97.5922 240.199C86.1542 251.075 85.6927 269.167 96.5616 280.61C107.43 292.052 125.514 292.513 136.952 281.637Z" fill="url(#paint3_linear_2086_6800)"/>
</mask>
<g mask="url(#mask1_2086_6800)">
<path d="M137.322 308.149C150.031 296.066 150.544 275.963 138.468 263.249C126.391 250.535 106.299 250.024 93.5896 262.107C80.8806 274.191 80.3679 294.293 92.4444 307.007C104.521 319.722 124.613 320.233 137.322 308.149Z" fill="white"/>
</g>
<path d="M119.482 336.283C130.923 325.411 131.384 307.323 120.513 295.883C109.641 284.443 91.5533 283.982 80.1126 294.855C68.6719 305.727 68.2106 323.815 79.0822 335.255C89.9538 346.695 108.041 347.156 119.482 336.283Z" fill="url(#paint4_linear_2086_6800)"/>
<mask id="mask2_2086_6800" style="mask-type:alpha" maskUnits="userSpaceOnUse" x="71" y="286" width="58" height="59">
<path d="M119.467 336.288C130.905 325.413 131.367 307.32 120.498 295.878C109.629 284.435 91.5459 283.975 80.1078 294.85C68.6698 305.725 68.2083 323.817 79.0772 335.26C89.946 346.703 108.029 347.163 119.467 336.288Z" fill="url(#paint5_linear_2086_6800)"/>
</mask>
<g mask="url(#mask2_2086_6800)">
<path d="M119.837 362.8C132.546 350.716 133.059 330.614 120.983 317.9C108.906 305.185 88.8135 304.674 76.1046 316.758C63.3956 328.841 62.8829 348.944 74.9594 361.658C87.0359 374.372 107.128 374.883 119.837 362.8Z" fill="white"/>
</g>
<path d="M106.564 314.455C109.904 310.391 109.317 304.388 105.252 301.048C101.188 297.708 95.1855 298.296 91.8455 302.361C88.5055 306.426 89.0928 312.428 93.1572 315.768C97.2217 319.108 103.224 318.52 106.564 314.455Z" fill="black"/>
<path d="M121.377 269.09C124.717 265.025 124.129 259.023 120.065 255.683C116 252.343 109.998 252.931 106.658 256.996C103.318 261.06 103.905 267.063 107.97 270.403C112.034 273.743 118.037 273.155 121.377 269.09Z" fill="black"/>
<path d="M21.9219 206.454C20.5158 193.909 30.334 182.93 42.9584 182.93H219.998C232.622 182.93 242.44 193.909 241.034 206.454L218.26 409.659C217.06 420.37 208.002 428.469 197.223 428.469H65.7331C54.9541 428.469 45.8966 420.37 44.6963 409.659L21.9219 206.454Z" fill="#5EA143"/>
<mask id="mask3_2086_6800" style="mask-type:alpha" maskUnits="userSpaceOnUse" x="21" y="182" width="221" height="247">
<path d="M21.9219 206.454C20.5158 193.909 30.334 182.93 42.9584 182.93H219.998C232.622 182.93 242.44 193.909 241.034 206.454L218.26 409.659C217.06 420.37 208.002 428.469 197.223 428.469H65.7331C54.9541 428.469 45.8966 420.37 44.6963 409.659L21.9219 206.454Z" fill="#5EA143"/>
</mask>
<g mask="url(#mask3_2086_6800)">
<path d="M72.4693 182.93C72.4693 182.93 89.1412 364.967 207.684 427.779V444.132H40.4944L10.8179 182.93H72.4693Z" fill="url(#paint6_linear_2086_6800)"/>
</g>
<path d="M171.698 239.234H91.258C84.2434 239.234 78.5569 244.92 78.5569 251.935C78.5569 258.949 84.2434 264.635 91.258 264.635H171.698C178.713 264.635 184.399 258.949 184.399 251.935C184.399 244.92 178.713 239.234 171.698 239.234Z" fill="white"/>
<path d="M171.698 345.492H91.258C84.2434 345.492 78.5569 351.178 78.5569 358.192C78.5569 365.207 84.2434 370.893 91.258 370.893H171.698C178.713 370.893 184.399 365.207 184.399 358.192C184.399 351.178 178.713 345.492 171.698 345.492Z" fill="white"/>
<path d="M85.239 337.698L132.947 280.341C136.969 275.506 142.933 272.709 149.222 272.709H176.699L131.116 329.745C127.099 334.771 121.014 337.698 114.58 337.698H85.239Z" fill="white"/>
<path d="M18.7628 151.522C18.5102 144.512 23.9882 138.625 30.9981 138.373L229.85 131.217C236.86 130.965 242.747 136.443 243 143.453C243.252 150.462 237.774 156.349 230.765 156.602L31.9128 163.758C24.9029 164.01 19.0154 158.532 18.7628 151.522Z" fill="#5EA143"/>
<path d="M86.0712 115.709C89.8419 110.006 96.1342 106.476 102.966 106.231L155.233 104.35C162.066 104.104 168.596 107.173 172.767 112.589L188.342 132.812L71.9922 136.999L86.0712 115.709Z" fill="#5EA143"/>
<mask id="mask4_2086_6800" style="mask-type:alpha" maskUnits="userSpaceOnUse" x="71" y="104" width="118" height="33">
<path d="M86.0712 115.709C89.8419 110.006 96.1342 106.476 102.966 106.231L155.233 104.35C162.066 104.104 168.596 107.173 172.767 112.589L188.342 132.812L71.9922 136.999L86.0712 115.709Z" fill="#5EA143"/>
</mask>
<g mask="url(#mask4_2086_6800)">
<path d="M81.8661 115.125C85.2541 108.214 92.1261 103.687 99.8132 103.302L168.568 99.8591L56.9738 240.318L72.2371 134.766L81.8661 115.125Z" fill="url(#paint7_linear_2086_6800)"/>
</g>
</g>
<defs>
<linearGradient id="paint0_linear_2086_6800" x1="54.7997" y1="275.277" x2="157.155" y2="359.383" gradientUnits="userSpaceOnUse">
<stop stop-color="#B9A8A9"/>
<stop offset="1" stop-color="#575050"/>
</linearGradient>
<linearGradient id="paint1_linear_2086_6800" x1="47.2984" y1="270.982" x2="158.246" y2="362.148" gradientUnits="userSpaceOnUse">
<stop stop-color="#B9A8A9"/>
<stop offset="1" stop-color="#575050"/>
</linearGradient>
<linearGradient id="paint2_linear_2086_6800" x1="121.343" y1="277.79" x2="118.309" y2="220.516" gradientUnits="userSpaceOnUse">
<stop stop-color="white"/>
<stop offset="1" stop-color="#B9A8A9"/>
</linearGradient>
<linearGradient id="paint3_linear_2086_6800" x1="122.941" y1="255.821" x2="117.91" y2="212.113" gradientUnits="userSpaceOnUse">
<stop stop-color="white"/>
<stop offset="1" stop-color="#B9A8A9"/>
</linearGradient>
<linearGradient id="paint4_linear_2086_6800" x1="103.859" y1="332.442" x2="100.824" y2="275.169" gradientUnits="userSpaceOnUse">
<stop stop-color="white"/>
<stop offset="1" stop-color="#B9A8A9"/>
</linearGradient>
<linearGradient id="paint5_linear_2086_6800" x1="105.456" y1="310.471" x2="100.425" y2="266.763" gradientUnits="userSpaceOnUse">
<stop stop-color="white"/>
<stop offset="1" stop-color="#B9A8A9"/>
</linearGradient>
<linearGradient id="paint6_linear_2086_6800" x1="109.251" y1="182.93" x2="109.251" y2="444.132" gradientUnits="userSpaceOnUse">
<stop stop-color="#5EA143"/>
<stop offset="1" stop-color="#AFC000"/>
</linearGradient>
<linearGradient id="paint7_linear_2086_6800" x1="139.08" y1="76.497" x2="91.2084" y2="141.995" gradientUnits="userSpaceOnUse">
<stop stop-color="#5EA143"/>
<stop offset="1" stop-color="#AFC000"/>
</linearGradient>
<clipPath id="clip0_2086_6800">
<rect width="279" height="428" fill="white"/>
</clipPath>
</defs>
</svg>
