<svg width="279" height="428" viewBox="0 0 279 428" fill="none" xmlns="http://www.w3.org/2000/svg">
<g clip-path="url(#clip0_2086_7348)">
<path d="M41.6565 186.651C48.6884 179.629 60.0808 179.637 67.1026 186.668L123.69 243.328C130.712 250.359 130.704 261.751 123.672 268.773C116.64 275.794 105.248 275.787 98.2262 268.756L41.6391 212.096C34.6172 205.065 34.625 193.673 41.6565 186.651Z" fill="#B9A8A9"/>
<path d="M88.8988 148.612C95.9306 141.59 107.323 141.598 114.345 148.628L170.932 205.289C177.954 212.32 177.946 223.712 170.915 230.734C163.883 237.755 152.49 237.748 145.468 230.717L88.8813 174.056C81.8595 167.026 81.8674 155.633 88.8988 148.612Z" fill="#B9A8A9"/>
<path d="M178.314 165.579C180.141 164.215 248.416 113.825 261.444 124.084C272.964 133.156 258.76 148.704 248.957 158.533C240.582 166.932 188.538 213.678 183.328 237.638C179.16 256.806 122.13 262.537 94.136 263.006C102.384 223.628 130.766 149.014 178.314 165.579Z" fill="#B9A8A9"/>
<path d="M41.6565 186.651C48.6884 179.629 60.0808 179.637 67.1026 186.668L123.69 243.328C130.712 250.359 130.704 261.751 123.672 268.773C116.64 275.794 105.248 275.787 98.2262 268.756L41.6391 212.096C34.6172 205.065 34.625 193.673 41.6565 186.651Z" stroke="#B9A8A9"/>
<path d="M88.8988 148.612C95.9306 141.59 107.323 141.598 114.345 148.628L170.932 205.289C177.954 212.32 177.946 223.712 170.915 230.734C163.883 237.755 152.49 237.748 145.468 230.717L88.8813 174.056C81.8595 167.026 81.8674 155.633 88.8988 148.612Z" stroke="#B9A8A9"/>
<path d="M178.314 165.579C180.141 164.215 248.416 113.825 261.444 124.084C272.964 133.156 258.76 148.704 248.957 158.533C240.582 166.932 188.538 213.678 183.328 237.638C179.16 256.806 122.13 262.537 94.136 263.006C102.384 223.628 130.766 149.014 178.314 165.579Z" stroke="#B9A8A9"/>
<mask id="mask0_2086_7348" style="mask-type:alpha" maskUnits="userSpaceOnUse" x="35" y="122" width="232" height="153">
<path d="M41.6566 186.651C48.6884 179.629 60.0808 179.637 67.1026 186.668L123.69 243.328C130.712 250.359 130.704 261.751 123.672 268.773C116.641 275.794 105.248 275.787 98.2263 268.756L41.6391 212.096C34.6172 205.065 34.625 193.673 41.6566 186.651Z" fill="#B9A8A9"/>
<path d="M88.8987 148.612C95.9305 141.59 107.323 141.598 114.345 148.628L170.932 205.289C177.954 212.32 177.946 223.712 170.914 230.734C163.883 237.755 152.49 237.748 145.468 230.717L88.8812 174.056C81.8594 167.026 81.8673 155.633 88.8987 148.612Z" fill="#B9A8A9"/>
<path d="M178.314 165.579C180.141 164.215 248.416 113.825 261.444 124.084C272.964 133.156 258.76 148.704 248.958 158.533C240.582 166.932 188.538 213.678 183.328 237.638C179.16 256.806 122.13 262.537 94.136 263.006C102.384 223.628 130.766 149.014 178.314 165.579Z" fill="#B9A8A9"/>
<path d="M41.6566 186.651C48.6884 179.629 60.0808 179.637 67.1026 186.668L123.69 243.328C130.712 250.359 130.704 261.751 123.672 268.773C116.641 275.794 105.248 275.787 98.2263 268.756L41.6391 212.096C34.6172 205.065 34.625 193.673 41.6566 186.651Z" stroke="#B9A8A9"/>
<path d="M88.8987 148.612C95.9305 141.59 107.323 141.598 114.345 148.628L170.932 205.289C177.954 212.32 177.946 223.712 170.914 230.734C163.883 237.755 152.49 237.748 145.468 230.717L88.8812 174.056C81.8594 167.026 81.8673 155.633 88.8987 148.612Z" stroke="#B9A8A9"/>
<path d="M178.314 165.579C180.141 164.215 248.416 113.825 261.444 124.084C272.964 133.156 258.76 148.704 248.958 158.533C240.582 166.932 188.538 213.678 183.328 237.638C179.16 256.806 122.13 262.537 94.136 263.006C102.384 223.628 130.766 149.014 178.314 165.579Z" stroke="#B9A8A9"/>
</mask>
<g mask="url(#mask0_2086_7348)">
<path d="M75.8615 150.666C77.7387 208.137 113.152 247.21 188.88 248.594L190.227 253.631L58.8371 288.742L25.5333 164.115L75.8615 150.666Z" fill="url(#paint0_linear_2086_7348)"/>
<path d="M101.728 134.205C95.9056 148.569 98.0423 156.565 119.019 180.834L99.5411 194.022L76.7881 162.245C76.7881 162.245 107.55 119.84 101.728 134.205Z" fill="url(#paint1_linear_2086_7348)"/>
<path d="M216.576 137.388L260.909 145.041L277.607 132.91L254.103 114.652L216.576 137.388Z" fill="#575050"/>
</g>
<path d="M153.414 196.23C169.047 194.057 179.959 179.624 177.786 163.992C175.614 148.361 161.18 137.45 145.548 139.623C129.915 141.795 119.003 156.229 121.176 171.86C123.348 187.492 137.782 198.403 153.414 196.23Z" fill="url(#paint2_linear_2086_7348)"/>
<mask id="mask1_2086_7348" style="mask-type:alpha" maskUnits="userSpaceOnUse" x="120" y="139" width="59" height="58">
<path d="M153.4 196.225C169.032 194.049 179.946 179.612 177.777 163.98C175.609 148.347 161.179 137.439 145.547 139.616C129.914 141.792 119 156.229 121.169 171.861C123.337 187.493 137.768 198.402 153.4 196.225Z" fill="url(#paint3_linear_2086_7348)"/>
</mask>
<g mask="url(#mask1_2086_7348)">
<path d="M138.257 217.991C155.626 215.573 167.753 199.532 165.343 182.163C162.934 164.794 146.9 152.674 129.531 155.092C112.162 157.51 100.035 173.551 102.445 190.92C104.855 208.289 120.888 220.409 138.257 217.991Z" fill="white"/>
</g>
<path d="M107.367 230.466C123 228.294 133.911 213.86 131.739 198.229C129.567 182.597 115.133 171.686 99.5003 173.859C83.8677 176.032 72.9561 190.465 75.1284 206.097C77.3008 221.728 91.7346 232.639 107.367 230.466Z" fill="url(#paint4_linear_2086_7348)"/>
<mask id="mask2_2086_7348" style="mask-type:alpha" maskUnits="userSpaceOnUse" x="74" y="173" width="59" height="58">
<path d="M107.353 230.461C122.985 228.285 133.899 213.848 131.73 198.216C129.562 182.584 115.131 171.676 99.4993 173.852C83.8672 176.029 72.953 190.465 75.1216 206.098C77.2902 221.73 91.7205 232.638 107.353 230.461Z" fill="url(#paint5_linear_2086_7348)"/>
</mask>
<g mask="url(#mask2_2086_7348)">
<path d="M92.2094 252.228C109.578 249.809 121.705 233.768 119.296 216.399C116.886 199.03 100.852 186.91 83.4835 189.328C66.1146 191.747 53.9876 207.788 56.3972 225.157C58.8068 242.526 74.8404 254.646 92.2094 252.228Z" fill="white"/>
</g>
<path d="M109.583 205.197C114.666 203.839 117.685 198.618 116.327 193.536C114.969 188.453 109.747 185.434 104.665 186.793C99.5821 188.151 96.5628 193.372 97.921 198.454C99.2791 203.537 104.5 206.556 109.583 205.197Z" fill="black"/>
<path d="M148.049 176.953C153.131 175.595 156.151 170.374 154.793 165.292C153.434 160.209 148.213 157.19 143.131 158.549C138.048 159.907 135.029 165.128 136.387 170.21C137.745 175.292 142.966 178.311 148.049 176.953Z" fill="black"/>
<path d="M25.9218 206.302C24.5158 193.757 34.334 182.777 46.9584 182.777H223.998C236.622 182.777 246.44 193.757 245.034 206.302L222.26 409.507C221.059 420.218 212.002 428.316 201.223 428.316H69.7331C58.9541 428.316 49.8966 420.218 48.6963 409.507L25.9218 206.302Z" fill="#5EA143"/>
<mask id="mask3_2086_7348" style="mask-type:alpha" maskUnits="userSpaceOnUse" x="25" y="182" width="221" height="247">
<path d="M25.9218 206.302C24.5158 193.757 34.334 182.777 46.9584 182.777H223.998C236.622 182.777 246.44 193.757 245.034 206.302L222.26 409.507C221.059 420.218 212.002 428.316 201.223 428.316H69.7331C58.9541 428.316 49.8966 420.218 48.6963 409.507L25.9218 206.302Z" fill="#5EA143"/>
</mask>
<g mask="url(#mask3_2086_7348)">
<path d="M76.4693 182.777C76.4693 182.777 93.1412 364.815 211.684 427.626V443.98H44.4944L14.8179 182.777H76.4693Z" fill="url(#paint6_linear_2086_7348)"/>
</g>
<path d="M175.698 239.082H95.258C88.2434 239.082 82.5569 244.768 82.5569 251.782C82.5569 258.797 88.2434 264.483 95.258 264.483H175.698C182.713 264.483 188.399 258.797 188.399 251.782C188.399 244.768 182.713 239.082 175.698 239.082Z" fill="white"/>
<path d="M175.698 345.342H95.258C88.2434 345.342 82.5569 351.028 82.5569 358.042C82.5569 365.056 88.2434 370.742 95.258 370.742H175.698C182.713 370.742 188.399 365.056 188.399 358.042C188.399 351.028 182.713 345.342 175.698 345.342Z" fill="white"/>
<path d="M89.2389 337.547L136.947 280.19C140.969 275.355 146.933 272.559 153.222 272.559H180.699L135.116 329.594C131.099 334.621 125.014 337.547 118.58 337.547H89.2389Z" fill="white"/>
<path d="M18.0049 166.443C15.7956 159.786 19.4017 152.598 26.0592 150.389L214.915 87.7261C221.572 85.517 228.76 89.123 230.97 95.7803C233.179 102.438 229.573 109.625 222.916 111.834L34.0598 174.498C27.4023 176.707 20.2142 173.101 18.0049 166.443Z" fill="#5EA143"/>
<path d="M72.5607 113.184C74.5798 106.652 79.6289 101.499 86.1171 99.3461L135.757 82.875C142.246 80.7221 149.375 81.8351 154.898 85.8634L175.522 100.904L65.0209 137.569L72.5607 113.184Z" fill="#5EA143"/>
<mask id="mask4_2086_7348" style="mask-type:alpha" maskUnits="userSpaceOnUse" x="65" y="81" width="111" height="57">
<path d="M72.5607 113.184C74.5798 106.652 79.6289 101.499 86.1171 99.3461L135.757 82.875C142.246 80.7221 149.375 81.8351 154.898 85.8634L175.522 100.904L65.0209 137.569L72.5607 113.184Z" fill="#5EA143"/>
</mask>
<g mask="url(#mask4_2086_7348)">
<path d="M68.3607 113.803C69.6736 106.219 74.9993 99.946 82.2696 97.4196L147.296 74.823L79.5959 240.951L64.6295 135.356L68.3607 113.803Z" fill="url(#paint7_linear_2086_7348)"/>
</g>
</g>
<defs>
<linearGradient id="paint0_linear_2086_7348" x1="90.3302" y1="143.2" x2="124.532" y2="271.187" gradientUnits="userSpaceOnUse">
<stop stop-color="#B9A8A9"/>
<stop offset="1" stop-color="#575050"/>
</linearGradient>
<linearGradient id="paint1_linear_2086_7348" x1="86.7346" y1="135.339" x2="123.807" y2="274.07" gradientUnits="userSpaceOnUse">
<stop stop-color="#B9A8A9"/>
<stop offset="1" stop-color="#575050"/>
</linearGradient>
<linearGradient id="paint2_linear_2086_7348" x1="142.953" y1="184.007" x2="173.85" y2="135.687" gradientUnits="userSpaceOnUse">
<stop stop-color="white"/>
<stop offset="1" stop-color="#B9A8A9"/>
</linearGradient>
<linearGradient id="paint3_linear_2086_7348" x1="157.05" y1="167.079" x2="178.422" y2="128.622" gradientUnits="userSpaceOnUse">
<stop stop-color="white"/>
<stop offset="1" stop-color="#B9A8A9"/>
</linearGradient>
<linearGradient id="paint4_linear_2086_7348" x1="96.906" y1="218.243" x2="127.803" y2="169.923" gradientUnits="userSpaceOnUse">
<stop stop-color="white"/>
<stop offset="1" stop-color="#B9A8A9"/>
</linearGradient>
<linearGradient id="paint5_linear_2086_7348" x1="111.003" y1="201.316" x2="132.375" y2="162.858" gradientUnits="userSpaceOnUse">
<stop stop-color="white"/>
<stop offset="1" stop-color="#B9A8A9"/>
</linearGradient>
<linearGradient id="paint6_linear_2086_7348" x1="113.251" y1="182.777" x2="113.251" y2="443.98" gradientUnits="userSpaceOnUse">
<stop stop-color="#5EA143"/>
<stop offset="1" stop-color="#AFC000"/>
</linearGradient>
<linearGradient id="paint7_linear_2086_7348" x1="112.438" y1="60.6731" x2="84.8671" y2="136.972" gradientUnits="userSpaceOnUse">
<stop stop-color="#5EA143"/>
<stop offset="1" stop-color="#AFC000"/>
</linearGradient>
<clipPath id="clip0_2086_7348">
<rect width="279" height="428" fill="white"/>
</clipPath>
</defs>
</svg>
