<svg width="279" height="428" viewBox="0 0 279 428" fill="none" xmlns="http://www.w3.org/2000/svg">
<g clip-path="url(#clip0_2086_7556)">
<path d="M54.3063 137.984C61.6918 131.336 73.0686 131.932 79.7174 139.317L133.298 198.828C139.947 206.213 139.35 217.59 131.965 224.238C124.579 230.887 113.203 230.29 106.554 222.905L52.9728 163.394C46.3239 156.009 46.9209 144.633 54.3063 137.984Z" fill="#B9A8A9"/>
<path d="M103.453 102.439C110.838 95.7907 122.215 96.3876 128.864 103.772L182.445 163.283C189.094 170.668 188.496 182.045 181.111 188.693C173.726 195.342 162.349 194.745 155.7 187.36L102.119 127.849C95.4704 120.465 96.0675 109.088 103.453 102.439Z" fill="#B9A8A9"/>
<path d="M191.871 124.008C193.766 122.739 264.555 75.9483 277.036 86.8675C288.071 96.5225 273.082 111.315 262.784 120.624C253.985 128.579 199.594 172.571 193.151 196.229C187.997 215.155 130.747 217.929 102.766 216.95C113.04 178.052 145.243 105.005 191.871 124.008Z" fill="#B9A8A9"/>
<path d="M54.3063 137.984C61.6918 131.336 73.0686 131.932 79.7174 139.317L133.298 198.828C139.947 206.213 139.35 217.59 131.965 224.238C124.579 230.887 113.203 230.29 106.554 222.905L52.9728 163.394C46.3239 156.009 46.9209 144.633 54.3063 137.984Z" stroke="#B9A8A9"/>
<path d="M103.453 102.439C110.838 95.7907 122.215 96.3876 128.864 103.772L182.445 163.283C189.094 170.668 188.496 182.045 181.111 188.693C173.726 195.342 162.349 194.745 155.7 187.36L102.119 127.849C95.4704 120.465 96.0675 109.088 103.453 102.439Z" stroke="#B9A8A9"/>
<path d="M191.871 124.008C193.766 122.739 264.555 75.9483 277.036 86.8675C288.071 96.5225 273.082 111.315 262.784 120.624C253.985 128.579 199.594 172.571 193.151 196.229C187.997 215.155 130.747 217.929 102.766 216.95C113.04 178.052 145.243 105.005 191.871 124.008Z" stroke="#B9A8A9"/>
<mask id="mask0_2086_7556" style="mask-type:alpha" maskUnits="userSpaceOnUse" x="47" y="84" width="235" height="146">
<path d="M54.3063 137.984C61.6918 131.336 73.0686 131.932 79.7174 139.317L133.298 198.828C139.947 206.213 139.35 217.59 131.965 224.238C124.579 230.887 113.203 230.29 106.554 222.905L52.9728 163.394C46.3239 156.009 46.9209 144.633 54.3063 137.984Z" fill="#B9A8A9"/>
<path d="M103.453 102.439C110.838 95.7907 122.215 96.3876 128.864 103.772L182.445 163.283C189.093 170.668 188.496 182.045 181.111 188.693C173.726 195.342 162.349 194.745 155.7 187.36L102.119 127.849C95.4703 120.465 96.0674 109.088 103.453 102.439Z" fill="#B9A8A9"/>
<path d="M191.871 124.008C193.766 122.739 264.555 75.9483 277.036 86.8675C288.071 96.5225 273.082 111.315 262.784 120.624C253.985 128.579 199.594 172.571 193.151 196.229C187.997 215.155 130.747 217.929 102.766 216.95C113.04 178.052 145.243 105.005 191.871 124.008Z" fill="#B9A8A9"/>
<path d="M54.3063 137.984C61.6918 131.336 73.0686 131.932 79.7174 139.317L133.298 198.828C139.947 206.213 139.35 217.59 131.965 224.238C124.579 230.887 113.203 230.29 106.554 222.905L52.9728 163.394C46.3239 156.009 46.9209 144.633 54.3063 137.984Z" stroke="#B9A8A9"/>
<path d="M103.453 102.439C110.838 95.7907 122.215 96.3876 128.864 103.772L182.445 163.283C189.093 170.668 188.496 182.045 181.111 188.693C173.726 195.342 162.349 194.745 155.7 187.36L102.119 127.849C95.4703 120.465 96.0674 109.088 103.453 102.439Z" stroke="#B9A8A9"/>
<path d="M191.871 124.008C193.766 122.739 264.555 75.9483 277.036 86.8675C288.071 96.5225 273.082 111.315 262.784 120.624C253.985 128.579 199.594 172.571 193.151 196.229C187.997 215.155 130.747 217.929 102.766 216.95C113.04 178.052 145.243 105.005 191.871 124.008Z" stroke="#B9A8A9"/>
</mask>
<g mask="url(#mask0_2086_7556)">
<path d="M90.3267 103.816C89.229 161.307 122.574 202.159 198.13 207.458L199.213 212.559L66.1836 240.827L39.3702 114.645L90.3267 103.816Z" fill="url(#paint0_linear_2086_7556)"/>
<path d="M117.01 88.715C110.452 102.759 112.173 110.855 131.866 136.176L111.732 148.339L90.6531 115.428C90.6531 115.428 123.567 74.6707 117.01 88.715Z" fill="url(#paint1_linear_2086_7556)"/>
<path d="M231.539 97.835L275.418 107.77L292.72 96.5197L270.192 77.0702L231.539 97.835Z" fill="#575050"/>
</g>
<path d="M165.419 153.329C181.143 151.968 192.787 138.118 191.426 122.395C190.065 106.672 176.215 95.0293 160.491 96.3906C144.767 97.7519 133.123 111.602 134.484 127.325C135.845 143.048 149.695 154.69 165.419 153.329Z" fill="url(#paint2_linear_2086_7556)"/>
<mask id="mask1_2086_7556" style="mask-type:alpha" maskUnits="userSpaceOnUse" x="134" y="96" width="58" height="58">
<path d="M165.405 153.323C181.128 151.958 192.775 138.105 191.418 122.382C190.06 106.659 176.214 95.0187 160.49 96.3838C144.766 97.7489 133.12 111.602 134.477 127.325C135.834 143.049 149.681 154.689 165.405 153.323Z" fill="url(#paint3_linear_2086_7556)"/>
</mask>
<g mask="url(#mask1_2086_7556)">
<path d="M149.157 174.276C166.627 172.759 179.568 157.367 178.06 139.896C176.552 122.426 161.167 109.493 143.696 111.01C126.225 112.526 113.285 127.919 114.793 145.389C116.301 162.86 131.686 175.793 149.157 174.276Z" fill="white"/>
</g>
<path d="M117.663 185.138C133.387 183.776 145.03 169.927 143.669 154.204C142.308 138.481 128.458 126.838 112.734 128.199C97.0103 129.561 85.3667 143.41 86.7277 159.133C88.0887 174.856 101.939 186.499 117.663 185.138Z" fill="url(#paint4_linear_2086_7556)"/>
<mask id="mask2_2086_7556" style="mask-type:alpha" maskUnits="userSpaceOnUse" x="86" y="128" width="58" height="58">
<path d="M117.648 185.132C133.372 183.767 145.018 169.914 143.661 154.191C142.304 138.467 128.457 126.827 112.734 128.192C97.0099 129.557 85.3635 143.41 86.7207 159.134C88.0779 174.857 101.925 186.497 117.648 185.132Z" fill="url(#paint5_linear_2086_7556)"/>
</mask>
<g mask="url(#mask2_2086_7556)">
<path d="M101.4 206.084C118.871 204.568 131.811 189.176 130.303 171.705C128.795 154.235 113.41 141.301 95.9389 142.818C78.4682 144.335 65.5278 159.727 67.0358 177.198C68.5438 194.668 83.9291 207.601 101.4 206.084Z" fill="white"/>
</g>
<path d="M121.183 160.02C126.329 158.926 129.614 153.868 128.52 148.722C127.427 143.577 122.369 140.292 117.223 141.385C112.077 142.479 108.791 147.537 109.885 152.682C110.978 157.828 116.036 161.113 121.183 160.02Z" fill="black"/>
<path d="M161.058 133.801C166.204 132.707 169.489 127.649 168.396 122.504C167.302 117.358 162.244 114.073 157.098 115.166C151.952 116.26 148.667 121.318 149.76 126.464C150.854 131.609 155.912 134.894 161.058 133.801Z" fill="black"/>
<path d="M25.9218 205.986C24.5158 193.44 34.334 182.461 46.9584 182.461H223.998C236.622 182.461 246.44 193.44 245.034 205.986L222.26 409.19C221.059 419.901 212.002 428 201.223 428H69.7331C58.9541 428 49.8966 419.901 48.6963 409.19L25.9218 205.986Z" fill="#5EA143"/>
<mask id="mask3_2086_7556" style="mask-type:alpha" maskUnits="userSpaceOnUse" x="25" y="182" width="221" height="246">
<path d="M25.9218 205.986C24.5158 193.44 34.334 182.461 46.9584 182.461H223.998C236.622 182.461 246.44 193.44 245.034 205.986L222.26 409.19C221.059 419.901 212.002 428 201.223 428H69.7331C58.9541 428 49.8966 419.901 48.6963 409.19L25.9218 205.986Z" fill="#5EA143"/>
</mask>
<g mask="url(#mask3_2086_7556)">
<path d="M76.4693 182.461C76.4693 182.461 93.1411 364.498 211.684 427.31V443.664H44.4943L14.8179 182.461H76.4693Z" fill="url(#paint6_linear_2086_7556)"/>
</g>
<path d="M175.698 238.766H95.2581C88.2435 238.766 82.557 244.452 82.557 251.466C82.557 258.48 88.2435 264.166 95.2581 264.166H175.698C182.713 264.166 188.399 258.48 188.399 251.466C188.399 244.452 182.713 238.766 175.698 238.766Z" fill="white"/>
<path d="M175.698 345.023H95.2581C88.2435 345.023 82.557 350.71 82.557 357.724C82.557 364.738 88.2435 370.424 95.2581 370.424H175.698C182.713 370.424 188.399 364.738 188.399 357.724C188.399 350.71 182.713 345.023 175.698 345.023Z" fill="white"/>
<path d="M89.2389 337.229L136.947 279.872C140.969 275.037 146.933 272.24 153.222 272.24H180.699L135.116 329.276C131.099 334.302 125.014 337.229 118.58 337.229H89.2389Z" fill="white"/>
<path d="M20.1225 144.389C17.0269 138.095 19.6204 130.483 25.915 127.388L204.475 39.5839C210.769 36.4886 218.382 39.082 221.477 45.3763C224.573 51.6705 221.979 59.2822 215.685 62.3776L37.1248 150.182C30.8302 153.277 23.218 150.684 20.1225 144.389Z" fill="#5EA143"/>
<path d="M66.915 84.1932C68.0257 77.4478 72.3257 71.6545 78.4603 68.6381L125.394 45.5589C131.529 42.5423 138.743 42.6739 144.764 45.9123L167.244 58.0037L62.7672 109.378L66.915 84.1932Z" fill="#5EA143"/>
<mask id="mask4_2086_7556" style="mask-type:alpha" maskUnits="userSpaceOnUse" x="62" y="43" width="106" height="67">
<path d="M66.915 84.1932C68.0257 77.4478 72.3257 71.6545 78.4603 68.6381L125.394 45.5589C131.529 42.5423 138.743 42.6739 144.764 45.9123L167.244 58.0037L62.7672 109.378L66.915 84.1932Z" fill="#5EA143"/>
</mask>
<g mask="url(#mask4_2086_7556)">
<path d="M62.8386 85.3787C63.1062 77.6869 67.5278 70.7468 74.3863 67.2536L135.729 36.0102L91.2882 209.811L62.078 107.24L62.8386 85.3787Z" fill="url(#paint7_linear_2086_7556)"/>
</g>
</g>
<defs>
<linearGradient id="paint0_linear_2086_7556" x1="105.162" y1="97.1083" x2="132.698" y2="226.693" gradientUnits="userSpaceOnUse">
<stop stop-color="#B9A8A9"/>
<stop offset="1" stop-color="#575050"/>
</linearGradient>
<linearGradient id="paint1_linear_2086_7556" x1="101.978" y1="89.0726" x2="131.826" y2="229.535" gradientUnits="userSpaceOnUse">
<stop stop-color="#B9A8A9"/>
<stop offset="1" stop-color="#575050"/>
</linearGradient>
<linearGradient id="paint2_linear_2086_7556" x1="155.604" y1="140.581" x2="188.959" y2="93.9238" gradientUnits="userSpaceOnUse">
<stop stop-color="white"/>
<stop offset="1" stop-color="#B9A8A9"/>
</linearGradient>
<linearGradient id="paint3_linear_2086_7556" x1="170.558" y1="124.405" x2="193.89" y2="87.105" gradientUnits="userSpaceOnUse">
<stop stop-color="white"/>
<stop offset="1" stop-color="#B9A8A9"/>
</linearGradient>
<linearGradient id="paint4_linear_2086_7556" x1="107.848" y1="172.39" x2="141.202" y2="125.732" gradientUnits="userSpaceOnUse">
<stop stop-color="white"/>
<stop offset="1" stop-color="#B9A8A9"/>
</linearGradient>
<linearGradient id="paint5_linear_2086_7556" x1="122.801" y1="156.214" x2="146.134" y2="118.914" gradientUnits="userSpaceOnUse">
<stop stop-color="white"/>
<stop offset="1" stop-color="#B9A8A9"/>
</linearGradient>
<linearGradient id="paint6_linear_2086_7556" x1="113.251" y1="182.461" x2="113.251" y2="443.664" gradientUnits="userSpaceOnUse">
<stop stop-color="#5EA143"/>
<stop offset="1" stop-color="#AFC000"/>
</linearGradient>
<linearGradient id="paint7_linear_2086_7556" x1="99.2684" y1="26.7403" x2="82.3471" y2="106.084" gradientUnits="userSpaceOnUse">
<stop stop-color="#5EA143"/>
<stop offset="1" stop-color="#AFC000"/>
</linearGradient>
<clipPath id="clip0_2086_7556">
<rect width="279" height="428" fill="white"/>
</clipPath>
</defs>
</svg>
