<svg width="279" height="428" viewBox="0 0 279 428" fill="none" xmlns="http://www.w3.org/2000/svg">
<g clip-path="url(#clip0_2086_6564)">
<path d="M29.9545 206.423C28.5485 193.878 38.3666 182.898 50.9911 182.898H228.03C240.655 182.898 250.473 193.878 249.067 206.423L226.292 409.628C225.092 420.339 216.035 428.437 205.256 428.437H73.7658C62.9868 428.437 53.9292 420.339 52.729 409.628L29.9545 206.423Z" fill="#5EA143"/>
<mask id="mask0_2086_6564" style="mask-type:alpha" maskUnits="userSpaceOnUse" x="29" y="182" width="221" height="247">
<path d="M29.9545 206.423C28.5485 193.878 38.3666 182.898 50.9911 182.898H228.03C240.655 182.898 250.473 193.878 249.067 206.423L226.292 409.628C225.092 420.339 216.035 428.437 205.256 428.437H73.7658C62.9868 428.437 53.9292 420.339 52.729 409.628L29.9545 206.423Z" fill="#5EA143"/>
</mask>
<g mask="url(#mask0_2086_6564)">
<path d="M80.502 182.898C80.502 182.898 97.1738 364.936 215.717 427.747V444.101H48.527L18.8506 182.898H80.502Z" fill="url(#paint0_linear_2086_6564)"/>
</g>
<path d="M179.731 239.203H99.2906C92.276 239.203 86.5896 244.889 86.5896 251.903C86.5896 258.918 92.276 264.604 99.2906 264.604H179.731C186.745 264.604 192.432 258.918 192.432 251.903C192.432 244.889 186.745 239.203 179.731 239.203Z" fill="white"/>
<path d="M179.731 345.461H99.2906C92.276 345.461 86.5896 351.147 86.5896 358.161C86.5896 365.175 92.276 370.862 99.2906 370.862H179.731C186.745 370.862 192.432 365.175 192.432 358.161C192.432 351.147 186.745 345.461 179.731 345.461Z" fill="white"/>
<path d="M93.2716 337.666L140.98 280.309C145.002 275.474 150.965 272.678 157.255 272.678H184.732L139.149 329.714C135.132 334.74 129.047 337.666 122.612 337.666H93.2716Z" fill="white"/>
<path d="M26.6952 159.96C26.7611 152.946 32.5006 147.314 39.5148 147.38L238.486 149.259C245.5 149.325 251.133 155.064 251.067 162.078C251.002 169.092 245.262 174.724 238.248 174.658L39.2763 172.78C32.2621 172.714 26.6293 166.975 26.6952 159.96Z" fill="#5EA143"/>
<path d="M95.5599 127.24C99.5856 121.714 106.032 118.474 112.867 118.539L165.166 119.032C172.003 119.097 178.387 122.458 182.308 128.058L196.948 148.968L80.5289 147.869L95.5599 127.24Z" fill="#5EA143"/>
<mask id="mask1_2086_6564" style="mask-type:alpha" maskUnits="userSpaceOnUse" x="80" y="118" width="117" height="31">
<path d="M95.5599 127.24C99.5856 121.714 106.032 118.474 112.867 118.539L165.166 119.032C172.003 119.097 178.387 122.458 182.308 128.058L196.948 148.968L80.5289 147.869L95.5599 127.24Z" fill="#5EA143"/>
</mask>
<g mask="url(#mask1_2086_6564)">
<path d="M91.3856 126.466C95.0838 119.717 102.154 115.506 109.851 115.471L178.691 115.152L60.8362 250.4L80.875 145.65L91.3856 126.466Z" fill="url(#paint1_linear_2086_6564)"/>
</g>
</g>
<defs>
<linearGradient id="paint0_linear_2086_6564" x1="117.284" y1="182.898" x2="117.284" y2="444.101" gradientUnits="userSpaceOnUse">
<stop stop-color="#5EA143"/>
<stop offset="1" stop-color="#AFC000"/>
</linearGradient>
<linearGradient id="paint1_linear_2086_6564" x1="150.294" y1="90.4755" x2="99.4985" y2="153.733" gradientUnits="userSpaceOnUse">
<stop stop-color="#5EA143"/>
<stop offset="1" stop-color="#AFC000"/>
</linearGradient>
<clipPath id="clip0_2086_6564">
<rect width="279" height="428" fill="white"/>
</clipPath>
</defs>
</svg>
