<svg width="279" height="428" viewBox="0 0 279 428" fill="none" xmlns="http://www.w3.org/2000/svg">
<g clip-path="url(#clip0_2086_7126)">
<path d="M45.9686 287.199C49.3591 277.858 59.6796 273.033 69.0204 276.423L144.296 303.739C153.636 307.128 158.46 317.449 155.07 326.79C151.68 336.131 141.359 340.955 132.018 337.566L56.7432 310.25C47.4025 306.86 42.5784 296.54 45.9686 287.199Z" fill="#B9A8A9"/>
<path d="M72.6209 232.714C76.0113 223.373 86.3318 218.549 95.6726 221.938L170.948 249.255C180.289 252.644 185.112 262.965 181.722 272.305C178.332 281.647 168.011 286.471 158.671 283.081L83.3955 255.765C74.0547 252.376 69.2308 242.055 72.6209 232.714Z" fill="#B9A8A9"/>
<path d="M160.793 210.161C161.869 208.151 202.331 133.563 218.481 137.329C232.761 140.658 226.49 160.763 221.782 173.822C217.758 184.98 190.45 249.385 195.892 273.293C200.246 292.419 151.028 321.794 125.875 334.091C116.646 294.932 110.708 215.323 160.793 210.161Z" fill="#B9A8A9"/>
<path d="M45.9686 287.199C49.3591 277.858 59.6796 273.033 69.0204 276.423L144.296 303.739C153.636 307.128 158.46 317.449 155.07 326.79C151.68 336.131 141.359 340.955 132.018 337.566L56.7432 310.25C47.4025 306.86 42.5784 296.54 45.9686 287.199Z" stroke="#B9A8A9"/>
<path d="M72.6209 232.714C76.0113 223.373 86.3318 218.549 95.6726 221.938L170.948 249.255C180.289 252.644 185.112 262.965 181.722 272.305C178.332 281.647 168.011 286.471 158.671 283.081L83.3955 255.765C74.0547 252.376 69.2308 242.055 72.6209 232.714Z" stroke="#B9A8A9"/>
<path d="M160.793 210.161C161.869 208.151 202.331 133.563 218.481 137.329C232.761 140.658 226.49 160.763 221.782 173.822C217.758 184.98 190.45 249.385 195.892 273.293C200.246 292.419 151.028 321.794 125.875 334.091C116.646 294.932 110.708 215.323 160.793 210.161Z" stroke="#B9A8A9"/>
<mask id="mask0_2086_7126" style="mask-type:alpha" maskUnits="userSpaceOnUse" x="44" y="136" width="184" height="204">
<path d="M45.9688 287.199C49.3592 277.858 59.6797 273.033 69.0205 276.423L144.296 303.739C153.636 307.128 158.46 317.449 155.07 326.79C151.68 336.131 141.359 340.955 132.019 337.566L56.7434 310.25C47.4026 306.86 42.5785 296.54 45.9688 287.199Z" fill="#B9A8A9"/>
<path d="M72.6208 232.714C76.0112 223.373 86.3317 218.549 95.6725 221.938L170.948 249.255C180.288 252.644 185.112 262.965 181.722 272.305C178.332 281.647 168.011 286.471 158.671 283.081L83.3954 255.765C74.0546 252.376 69.2306 242.055 72.6208 232.714Z" fill="#B9A8A9"/>
<path d="M160.794 210.161C161.869 208.151 202.332 133.563 218.481 137.329C232.761 140.658 226.49 160.763 221.782 173.822C217.758 184.98 190.45 249.385 195.892 273.293C200.246 292.419 151.029 321.794 125.875 334.091C116.646 294.932 110.708 215.323 160.794 210.161Z" fill="#B9A8A9"/>
<path d="M45.9688 287.199C49.3592 277.858 59.6797 273.033 69.0205 276.423L144.296 303.739C153.636 307.128 158.46 317.449 155.07 326.79C151.68 336.131 141.359 340.955 132.019 337.566L56.7434 310.25C47.4026 306.86 42.5785 296.54 45.9688 287.199Z" stroke="#B9A8A9"/>
<path d="M72.6208 232.714C76.0112 223.373 86.3317 218.549 95.6725 221.938L170.948 249.255C180.288 252.644 185.112 262.965 181.722 272.305C178.332 281.647 168.011 286.471 158.671 283.081L83.3954 255.765C74.0546 252.376 69.2306 242.055 72.6208 232.714Z" stroke="#B9A8A9"/>
<path d="M160.794 210.161C161.869 208.151 202.332 133.563 218.481 137.329C232.761 140.658 226.49 160.763 221.782 173.822C217.758 184.98 190.45 249.385 195.892 273.293C200.246 292.419 151.029 321.794 125.875 334.091C116.646 294.932 110.708 215.323 160.794 210.161Z" stroke="#B9A8A9"/>
</mask>
<g mask="url(#mask0_2086_7126)">
<path d="M61.6852 240.104C87.7571 291.355 136.398 311.723 205.567 280.862L208.922 284.853L104.822 372.369L21.81 273.627L61.6852 240.104Z" fill="url(#paint0_linear_2086_7126)"/>
<path d="M78.1297 214.226C78.9486 229.705 84.2744 236.04 113.563 249.122L101.516 269.326L67.4346 250.197C67.4346 250.197 77.3107 198.748 78.1297 214.226Z" fill="url(#paint1_linear_2086_7126)"/>
<path d="M183.489 168.407L226.884 156.537L236.862 138.47L207.833 131.902L183.489 168.407Z" fill="#575050"/>
</g>
<path d="M151.241 248.478C164.477 239.881 168.238 222.182 159.642 208.947C151.046 195.712 133.347 191.952 120.111 200.549C106.875 209.146 103.114 226.845 111.711 240.08C120.307 253.315 138.006 257.075 151.241 248.478Z" fill="url(#paint2_linear_2086_7126)"/>
<mask id="mask1_2086_7126" style="mask-type:alpha" maskUnits="userSpaceOnUse" x="107" y="195" width="58" height="59">
<path d="M151.226 248.482C164.46 239.881 168.222 222.179 159.629 208.941C151.036 195.704 133.341 191.945 120.107 200.545C106.874 209.145 103.112 226.848 111.705 240.085C120.298 253.323 137.992 257.082 151.226 248.482Z" fill="url(#paint3_linear_2086_7126)"/>
</mask>
<g mask="url(#mask1_2086_7126)">
<path d="M146.743 274.613C161.447 265.057 165.627 245.387 156.079 230.679C146.531 215.971 126.871 211.794 112.166 221.35C97.4621 230.906 93.2821 250.576 102.83 265.284C112.378 279.992 132.038 284.169 146.743 274.613Z" fill="white"/>
</g>
<path d="M124.058 299.011C137.294 290.414 141.055 272.716 132.459 259.48C123.863 246.245 106.164 242.485 92.9282 251.082C79.6923 259.679 75.9312 277.378 84.5276 290.613C93.124 303.848 110.822 307.608 124.058 299.011Z" fill="url(#paint4_linear_2086_7126)"/>
<mask id="mask2_2086_7126" style="mask-type:alpha" maskUnits="userSpaceOnUse" x="79" y="246" width="59" height="58">
<path d="M124.043 299.015C137.277 290.415 141.039 272.712 132.446 259.474C123.853 246.237 106.158 242.478 92.9244 251.078C79.6906 259.679 75.9286 277.381 84.5218 290.619C93.1149 303.856 110.809 307.615 124.043 299.015Z" fill="url(#paint5_linear_2086_7126)"/>
</mask>
<g mask="url(#mask2_2086_7126)">
<path d="M119.559 325.146C134.263 315.59 138.443 295.92 128.895 281.212C119.347 266.504 99.6869 262.327 84.9827 271.883C70.2784 281.439 66.0984 301.109 75.6464 315.817C85.1944 330.525 104.855 334.702 119.559 325.146Z" fill="white"/>
</g>
<path d="M115.35 275.188C119.377 271.803 119.897 265.794 116.512 261.768C113.127 257.741 107.118 257.221 103.091 260.606C99.0639 263.992 98.5436 270.001 101.929 274.027C105.314 278.054 111.323 278.574 115.35 275.188Z" fill="black"/>
<path d="M138.208 233.298C142.235 229.912 142.755 223.904 139.37 219.877C135.984 215.85 129.976 215.33 125.949 218.716C121.922 222.101 121.402 228.11 124.787 232.137C128.172 236.163 134.181 236.683 138.208 233.298Z" fill="black"/>
<path d="M25.9219 205.986C24.5159 193.44 34.334 182.461 46.9585 182.461H223.998C236.622 182.461 246.441 193.44 245.034 205.986L222.26 409.19C221.06 419.901 212.002 428 201.223 428H69.7332C58.9542 428 49.8966 419.901 48.6964 409.19L25.9219 205.986Z" fill="#5EA143"/>
<mask id="mask3_2086_7126" style="mask-type:alpha" maskUnits="userSpaceOnUse" x="25" y="182" width="221" height="246">
<path d="M25.9219 205.986C24.5159 193.44 34.334 182.461 46.9585 182.461H223.998C236.622 182.461 246.441 193.44 245.034 205.986L222.26 409.19C221.06 419.901 212.002 428 201.223 428H69.7332C58.9542 428 49.8966 419.901 48.6964 409.19L25.9219 205.986Z" fill="#5EA143"/>
</mask>
<g mask="url(#mask3_2086_7126)">
<path d="M76.4694 182.461C76.4694 182.461 93.1412 364.498 211.685 427.31V443.664H44.4945L14.818 182.461H76.4694Z" fill="url(#paint6_linear_2086_7126)"/>
</g>
<path d="M175.698 238.766H95.2581C88.2435 238.766 82.557 244.452 82.557 251.466C82.557 258.48 88.2435 264.166 95.2581 264.166H175.698C182.713 264.166 188.399 258.48 188.399 251.466C188.399 244.452 182.713 238.766 175.698 238.766Z" fill="white"/>
<path d="M175.698 345.023H95.2581C88.2435 345.023 82.557 350.71 82.557 357.724C82.557 364.738 88.2435 370.424 95.2581 370.424H175.698C182.713 370.424 188.399 364.738 188.399 357.724C188.399 350.71 182.713 345.023 175.698 345.023Z" fill="white"/>
<path d="M89.239 337.229L136.947 279.872C140.969 275.037 146.933 272.24 153.222 272.24H180.699L135.116 329.276C131.099 334.302 125.014 337.229 118.58 337.229H89.239Z" fill="white"/>
<path d="M22.5558 165.436C21.0632 158.582 25.4093 151.817 32.2632 150.324L226.688 107.99C233.542 106.498 240.308 110.844 241.801 117.698C243.294 124.551 238.947 131.317 232.094 132.809L37.6687 175.144C30.8148 176.636 24.0485 172.29 22.5558 165.436Z" fill="#5EA143"/>
<path d="M82.4396 118.246C85.1384 111.965 90.7042 107.375 97.3838 105.92L148.488 94.7927C155.168 93.3384 162.139 95.1992 167.205 99.7891L186.122 116.927L72.3626 141.697L82.4396 118.246Z" fill="#5EA143"/>
<mask id="mask4_2086_7126" style="mask-type:alpha" maskUnits="userSpaceOnUse" x="72" y="94" width="115" height="48">
<path d="M82.4396 118.246C85.1384 111.965 90.7042 107.375 97.3838 105.92L148.488 94.7927C155.168 93.3384 162.139 95.1992 167.205 99.7891L186.122 116.927L72.3626 141.697L82.4396 118.246Z" fill="#5EA143"/>
</mask>
<g mask="url(#mask4_2086_7126)">
<path d="M78.1977 118.418C80.3054 111.016 86.2648 105.341 93.7616 103.598L160.813 88.0068L75.9197 246.041L72.2073 139.456L78.1977 118.418Z" fill="url(#paint7_linear_2086_7126)"/>
</g>
</g>
<defs>
<linearGradient id="paint0_linear_2086_7126" x1="71.6221" y1="227.207" x2="156.872" y2="328.611" gradientUnits="userSpaceOnUse">
<stop stop-color="#B9A8A9"/>
<stop offset="1" stop-color="#575050"/>
</linearGradient>
<linearGradient id="paint1_linear_2086_7126" x1="65.0326" y1="221.612" x2="157.439" y2="331.529" gradientUnits="userSpaceOnUse">
<stop stop-color="#B9A8A9"/>
<stop offset="1" stop-color="#575050"/>
</linearGradient>
<linearGradient id="paint2_linear_2086_7126" x1="136.584" y1="241.845" x2="144.074" y2="184.982" gradientUnits="userSpaceOnUse">
<stop stop-color="white"/>
<stop offset="1" stop-color="#B9A8A9"/>
</linearGradient>
<linearGradient id="paint3_linear_2086_7126" x1="142.172" y1="220.538" x2="145.218" y2="176.647" gradientUnits="userSpaceOnUse">
<stop stop-color="white"/>
<stop offset="1" stop-color="#B9A8A9"/>
</linearGradient>
<linearGradient id="paint4_linear_2086_7126" x1="109.401" y1="292.378" x2="116.891" y2="235.515" gradientUnits="userSpaceOnUse">
<stop stop-color="white"/>
<stop offset="1" stop-color="#B9A8A9"/>
</linearGradient>
<linearGradient id="paint5_linear_2086_7126" x1="114.989" y1="271.072" x2="118.035" y2="227.18" gradientUnits="userSpaceOnUse">
<stop stop-color="white"/>
<stop offset="1" stop-color="#B9A8A9"/>
</linearGradient>
<linearGradient id="paint6_linear_2086_7126" x1="113.251" y1="182.461" x2="113.251" y2="443.664" gradientUnits="userSpaceOnUse">
<stop stop-color="#5EA143"/>
<stop offset="1" stop-color="#AFC000"/>
</linearGradient>
<linearGradient id="paint7_linear_2086_7126" x1="127.648" y1="70.249" x2="92.1605" y2="143.204" gradientUnits="userSpaceOnUse">
<stop stop-color="#5EA143"/>
<stop offset="1" stop-color="#AFC000"/>
</linearGradient>
<clipPath id="clip0_2086_7126">
<rect width="279" height="428" fill="white"/>
</clipPath>
</defs>
</svg>
