<svg width="279" height="428" viewBox="0 0 279 428" fill="none" xmlns="http://www.w3.org/2000/svg">
<g clip-path="url(#clip0_2086_7660)">
<path d="M45.7611 102.505C54.2229 97.2942 65.3063 99.9294 70.5171 108.39L112.51 176.575C117.72 185.036 115.085 196.119 106.624 201.329C98.1619 206.54 87.0785 203.905 81.8677 195.444L39.8752 127.259C34.6643 118.799 37.2995 107.715 45.7611 102.505Z" fill="#B9A8A9"/>
<path d="M100.503 76.3876C108.965 71.177 120.049 73.8122 125.26 82.2731L167.252 150.458C172.463 158.919 169.827 170.002 161.366 175.212C152.904 180.423 141.821 177.788 136.61 169.327L94.6175 101.142C89.4067 92.6813 92.0421 81.5981 100.503 76.3876Z" fill="#B9A8A9"/>
<path d="M183.594 113.522C185.686 112.616 263.743 79.3322 274.054 92.3196C283.171 103.804 265.763 115.656 253.958 122.96C243.871 129.2 182.449 162.682 171.853 184.794C163.376 202.483 106.562 194.906 79.2142 188.906C96.322 152.492 141.149 86.4361 183.594 113.522Z" fill="#B9A8A9"/>
<path d="M45.7611 102.505C54.2229 97.2942 65.3063 99.9294 70.5171 108.39L112.51 176.575C117.72 185.036 115.085 196.119 106.624 201.329C98.1619 206.54 87.0785 203.905 81.8677 195.444L39.8752 127.259C34.6643 118.799 37.2995 107.715 45.7611 102.505Z" stroke="#B9A8A9"/>
<path d="M100.503 76.3876C108.965 71.177 120.049 73.8122 125.26 82.2731L167.252 150.458C172.463 158.919 169.827 170.002 161.366 175.212C152.904 180.423 141.821 177.788 136.61 169.327L94.6175 101.142C89.4067 92.6813 92.0421 81.5981 100.503 76.3876Z" stroke="#B9A8A9"/>
<path d="M183.594 113.522C185.686 112.616 263.743 79.3322 274.054 92.3196C283.171 103.804 265.763 115.656 253.958 122.96C243.871 129.2 182.449 162.682 171.853 184.794C163.376 202.483 106.562 194.906 79.2142 188.906C96.322 152.492 141.149 86.4361 183.594 113.522Z" stroke="#B9A8A9"/>
<mask id="mask0_2086_7660" style="mask-type:alpha" maskUnits="userSpaceOnUse" x="36" y="73" width="242" height="132">
<path d="M45.7611 102.507C54.2229 97.2962 65.3063 99.9313 70.5171 108.392L112.51 176.577C117.72 185.038 115.085 196.121 106.624 201.331C98.1619 206.542 87.0785 203.907 81.8677 195.446L39.8752 127.261C34.6643 118.8 37.2995 107.717 45.7611 102.507Z" fill="#B9A8A9"/>
<path d="M100.503 76.3876C108.965 71.177 120.049 73.8122 125.259 82.2731L167.252 150.458C172.463 158.919 169.827 170.002 161.366 175.212C152.904 180.423 141.821 177.788 136.61 169.327L94.6174 101.142C89.4066 92.6813 92.042 81.5981 100.503 76.3876Z" fill="#B9A8A9"/>
<path d="M183.594 113.522C185.686 112.616 263.743 79.3322 274.054 92.3196C283.171 103.804 265.763 115.656 253.958 122.96C243.871 129.2 182.449 162.682 171.853 184.794C163.376 202.483 106.562 194.906 79.2142 188.906C96.322 152.492 141.149 86.4361 183.594 113.522Z" fill="#B9A8A9"/>
<path d="M45.7611 102.507C54.2229 97.2962 65.3063 99.9313 70.5171 108.392L112.51 176.577C117.72 185.038 115.085 196.121 106.624 201.331C98.1619 206.542 87.0785 203.907 81.8677 195.446L39.8752 127.261C34.6643 118.8 37.2995 107.717 45.7611 102.507Z" stroke="#B9A8A9"/>
<path d="M100.503 76.3876C108.965 71.177 120.049 73.8122 125.259 82.2731L167.252 150.458C172.463 158.919 169.827 170.002 161.366 175.212C152.904 180.423 141.821 177.788 136.61 169.327L94.6174 101.142C89.4066 92.6813 92.042 81.5981 100.503 76.3876Z" stroke="#B9A8A9"/>
<path d="M183.594 113.522C185.686 112.616 263.743 79.3322 274.054 92.3196C283.171 103.804 265.763 115.656 253.958 122.96C243.871 129.2 182.449 162.682 171.853 184.794C163.376 202.483 106.562 194.906 79.2142 188.906C96.322 152.492 141.149 86.4361 183.594 113.522Z" stroke="#B9A8A9"/>
</mask>
<g mask="url(#mask0_2086_7660)">
<path d="M87.3438 75.3813C75.9147 131.735 101.361 177.923 174.728 196.736L174.876 201.949L38.9309 205.807L35.2706 76.8594L87.3438 75.3813Z" fill="url(#paint0_linear_2086_7660)"/>
<path d="M116.309 65.3299C107.331 77.9644 107.566 86.2373 122.379 114.69L100.385 123.03L85.5747 86.8615C85.5747 86.8615 125.288 52.6955 116.309 65.3299Z" fill="url(#paint1_linear_2086_7660)"/>
<path d="M227.326 94.9165L268.699 112.588L287.745 104.636L269.086 81.4493L227.326 94.9165Z" fill="#575050"/>
</g>
<path d="M152.296 137.602C168.009 139.094 181.955 127.566 183.447 111.855C184.938 96.1437 173.41 82.1981 157.698 80.7066C141.986 79.215 128.04 90.7424 126.548 106.454C125.056 122.165 136.584 136.111 152.296 137.602Z" fill="url(#paint2_linear_2086_7660)"/>
<mask id="mask1_2086_7660" style="mask-type:alpha" maskUnits="userSpaceOnUse" x="126" y="80" width="58" height="58">
<path d="M152.283 137.594C167.996 139.082 181.946 127.552 183.441 111.841C184.937 96.1298 173.411 82.1875 157.699 80.6997C141.986 79.2119 128.036 90.7421 126.541 106.453C125.045 122.164 136.571 136.106 152.283 137.594Z" fill="url(#paint3_linear_2086_7660)"/>
</mask>
<g mask="url(#mask1_2086_7660)">
<path d="M132.529 155.279C149.987 156.932 165.487 144.121 167.148 126.665C168.81 109.208 156.004 93.7166 138.546 92.0635C121.088 90.4104 105.588 103.222 103.926 120.678C102.264 138.135 115.07 153.626 132.529 155.279Z" fill="white"/>
</g>
<path d="M99.5941 160.295C115.306 161.787 129.253 150.26 130.744 134.548C132.236 118.837 120.708 104.891 104.996 103.4C89.2838 101.908 75.3373 113.436 73.8456 129.147C72.3539 144.858 83.8819 158.804 99.5941 160.295Z" fill="url(#paint4_linear_2086_7660)"/>
<mask id="mask2_2086_7660" style="mask-type:alpha" maskUnits="userSpaceOnUse" x="73" y="103" width="58" height="58">
<path d="M99.5809 160.287C115.293 161.775 129.243 150.245 130.739 134.534C132.234 118.823 120.709 104.881 104.996 103.393C89.2839 101.905 75.3341 113.435 73.8386 129.146C72.3431 144.857 83.8683 158.8 99.5809 160.287Z" fill="url(#paint5_linear_2086_7660)"/>
</mask>
<g mask="url(#mask2_2086_7660)">
<path d="M79.8259 177.973C97.2843 179.626 112.784 166.815 114.446 149.358C116.107 131.901 103.302 116.41 85.8433 114.757C68.3849 113.104 52.885 125.915 51.2234 143.372C49.5618 160.828 62.3676 176.32 79.8259 177.973Z" fill="white"/>
</g>
<path d="M107.578 136.22C112.837 136.07 116.979 131.687 116.83 126.428C116.681 121.17 112.296 117.028 107.038 117.177C101.779 117.326 97.6366 121.71 97.7859 126.969C97.9352 132.227 102.319 136.369 107.578 136.22Z" fill="black"/>
<path d="M151.521 117.608C156.78 117.459 160.922 113.075 160.773 107.817C160.624 102.558 156.24 98.4164 150.981 98.5657C145.722 98.7149 141.58 103.099 141.729 108.357C141.879 113.616 146.263 117.758 151.521 117.608Z" fill="black"/>
<path d="M25.9218 205.986C24.5158 193.44 34.334 182.461 46.9584 182.461H223.998C236.622 182.461 246.44 193.44 245.034 205.986L222.26 409.19C221.059 419.901 212.002 428 201.223 428H69.7331C58.9541 428 49.8966 419.901 48.6963 409.19L25.9218 205.986Z" fill="#5EA143"/>
<mask id="mask3_2086_7660" style="mask-type:alpha" maskUnits="userSpaceOnUse" x="25" y="182" width="221" height="246">
<path d="M25.9218 205.986C24.5158 193.44 34.334 182.461 46.9584 182.461H223.998C236.622 182.461 246.44 193.44 245.034 205.986L222.26 409.19C221.059 419.901 212.002 428 201.223 428H69.7331C58.9541 428 49.8966 419.901 48.6963 409.19L25.9218 205.986Z" fill="#5EA143"/>
</mask>
<g mask="url(#mask3_2086_7660)">
<path d="M76.4693 182.461C76.4693 182.461 93.1411 364.498 211.684 427.31V443.664H44.4943L14.8179 182.461H76.4693Z" fill="url(#paint6_linear_2086_7660)"/>
</g>
<path d="M175.698 238.766H95.2581C88.2435 238.766 82.557 244.452 82.557 251.466C82.557 258.48 88.2435 264.166 95.2581 264.166H175.698C182.713 264.166 188.399 258.48 188.399 251.466C188.399 244.452 182.713 238.766 175.698 238.766Z" fill="white"/>
<path d="M175.698 345.023H95.2581C88.2435 345.023 82.557 350.71 82.557 357.724C82.557 364.738 88.2435 370.424 95.2581 370.424H175.698C182.713 370.424 188.399 364.738 188.399 357.724C188.399 350.71 182.713 345.023 175.698 345.023Z" fill="white"/>
<path d="M89.2389 337.231L136.947 279.874C140.969 275.039 146.933 272.242 153.222 272.242H180.699L135.116 329.278C131.099 334.304 125.014 337.231 118.58 337.231H89.2389Z" fill="white"/>
<path d="M1.76735 141.549C-1.67881 135.44 0.480422 127.694 6.59011 124.248L179.905 26.4967C186.014 23.0507 193.761 25.2098 197.207 31.3192C200.653 37.4285 198.494 45.1746 192.384 48.6206L19.0698 146.372C12.9601 149.818 5.21353 147.659 1.76735 141.549Z" fill="#5EA143"/>
<path d="M45.0844 78.8064C45.8123 72.009 49.7781 65.9819 55.7325 62.6239L101.288 36.93C107.242 33.5716 114.452 33.2955 120.646 36.1885L143.773 46.9907L42.366 104.186L45.0844 78.8064Z" fill="#5EA143"/>
<mask id="mask4_2086_7660" style="mask-type:alpha" maskUnits="userSpaceOnUse" x="42" y="34" width="102" height="71">
<path d="M45.0844 78.8064C45.8123 72.009 49.7781 65.9819 55.7325 62.6239L101.288 36.93C107.242 33.5716 114.452 33.2955 120.646 36.1885L143.773 46.9907L42.366 104.186L45.0844 78.8064Z" fill="#5EA143"/>
</mask>
<g mask="url(#mask4_2086_7660)">
<path d="M41.0816 80.2218C40.9143 72.5271 44.9367 65.3483 51.5869 61.4733L111.066 26.8142L76.5156 202.848L41.5573 102.091L41.0816 80.2218Z" fill="url(#paint7_linear_2086_7660)"/>
</g>
</g>
<defs>
<linearGradient id="paint0_linear_2086_7660" x1="103.145" y1="71.4534" x2="106.903" y2="203.878" gradientUnits="userSpaceOnUse">
<stop stop-color="#B9A8A9"/>
<stop offset="1" stop-color="#575050"/>
</linearGradient>
<linearGradient id="paint1_linear_2086_7660" x1="101.459" y1="62.9757" x2="105.533" y2="206.516" gradientUnits="userSpaceOnUse">
<stop stop-color="#B9A8A9"/>
<stop offset="1" stop-color="#575050"/>
</linearGradient>
<linearGradient id="paint2_linear_2086_7660" x1="144.937" y1="123.296" x2="186.145" y2="83.4048" gradientUnits="userSpaceOnUse">
<stop stop-color="white"/>
<stop offset="1" stop-color="#B9A8A9"/>
</linearGradient>
<linearGradient id="paint3_linear_2086_7660" x1="162.558" y1="110.076" x2="192.224" y2="77.5851" gradientUnits="userSpaceOnUse">
<stop stop-color="white"/>
<stop offset="1" stop-color="#B9A8A9"/>
</linearGradient>
<linearGradient id="paint4_linear_2086_7660" x1="92.2343" y1="145.989" x2="133.443" y2="106.098" gradientUnits="userSpaceOnUse">
<stop stop-color="white"/>
<stop offset="1" stop-color="#B9A8A9"/>
</linearGradient>
<linearGradient id="paint5_linear_2086_7660" x1="109.855" y1="132.769" x2="139.521" y2="100.278" gradientUnits="userSpaceOnUse">
<stop stop-color="white"/>
<stop offset="1" stop-color="#B9A8A9"/>
</linearGradient>
<linearGradient id="paint6_linear_2086_7660" x1="113.251" y1="182.461" x2="113.251" y2="443.664" gradientUnits="userSpaceOnUse">
<stop stop-color="#5EA143"/>
<stop offset="1" stop-color="#AFC000"/>
</linearGradient>
<linearGradient id="paint7_linear_2086_7660" x1="74.1405" y1="19.6189" x2="61.7287" y2="99.7918" gradientUnits="userSpaceOnUse">
<stop stop-color="#5EA143"/>
<stop offset="1" stop-color="#AFC000"/>
</linearGradient>
<clipPath id="clip0_2086_7660">
<rect width="279" height="428" fill="white"/>
</clipPath>
</defs>
</svg>
