<svg width="279" height="428" viewBox="0 0 279 428" fill="none" xmlns="http://www.w3.org/2000/svg">
<g clip-path="url(#clip0_2086_5956)">
<path d="M30.1659 206.214C28.7598 193.669 38.578 182.689 51.2024 182.689H228.242C240.866 182.689 250.684 193.669 249.278 206.214L226.504 409.419C225.304 420.13 216.246 428.228 205.467 428.228H73.9771C63.1981 428.228 54.1406 420.13 52.9403 409.419L30.1659 206.214Z" fill="#5EA143"/>
<mask id="mask0_2086_5956" style="mask-type:alpha" maskUnits="userSpaceOnUse" x="30" y="182" width="220" height="247">
<path d="M30.1659 206.214C28.7598 193.669 38.578 182.689 51.2024 182.689H228.242C240.866 182.689 250.684 193.669 249.278 206.214L226.504 409.419C225.304 420.13 216.246 428.228 205.467 428.228H73.9771C63.1981 428.228 54.1406 420.13 52.9403 409.419L30.1659 206.214Z" fill="#5EA143"/>
</mask>
<g mask="url(#mask0_2086_5956)">
<path d="M80.7133 182.689C80.7133 182.689 97.3851 364.727 215.928 427.538V443.892H48.7384L19.0619 182.689H80.7133Z" fill="url(#paint0_linear_2086_5956)"/>
</g>
<path d="M179.942 238.994H99.502C92.4874 238.994 86.8009 244.68 86.8009 251.694C86.8009 258.709 92.4874 264.395 99.502 264.395H179.942C186.957 264.395 192.643 258.709 192.643 251.694C192.643 244.68 186.957 238.994 179.942 238.994Z" fill="white"/>
<path d="M179.942 345.254H99.502C92.4874 345.254 86.8009 350.94 86.8009 357.954C86.8009 364.968 92.4874 370.654 99.502 370.654H179.942C186.957 370.654 192.643 364.968 192.643 357.954C192.643 350.94 186.957 345.254 179.942 345.254Z" fill="white"/>
<path d="M93.4829 337.459L141.191 280.102C145.213 275.267 151.177 272.471 157.466 272.471H184.943L139.36 329.506C135.343 334.533 129.258 337.459 122.824 337.459H93.4829Z" fill="white"/>
<path d="M27.2634 169.815C26.7002 162.823 31.9116 156.699 38.9034 156.136L237.242 140.167C244.234 139.604 250.358 144.816 250.922 151.807C251.485 158.799 246.273 164.923 239.282 165.486L40.9432 181.455C33.9513 182.018 27.8266 176.806 27.2634 169.815Z" fill="#5EA143"/>
<path d="M92.9171 131.052C96.4311 125.188 102.561 121.382 109.375 120.834L161.507 116.636C168.322 116.088 174.982 118.863 179.389 124.089L195.845 143.602L79.7962 152.945L92.9171 131.052Z" fill="#5EA143"/>
<mask id="mask1_2086_5956" style="mask-type:alpha" maskUnits="userSpaceOnUse" x="79" y="116" width="117" height="37">
<path d="M92.9171 131.052C96.4311 125.188 102.561 121.382 109.375 120.834L161.507 116.636C168.322 116.088 174.982 118.863 179.389 124.089L195.845 143.602L79.7962 152.945L92.9171 131.052Z" fill="#5EA143"/>
</mask>
<g mask="url(#mask1_2086_5956)">
<path d="M88.6902 130.655C91.7684 123.601 98.4328 118.774 106.095 118.048L174.629 111.559L69.3754 256.829L79.9419 150.703L88.6902 130.655Z" fill="url(#paint1_linear_2086_5956)"/>
</g>
</g>
<defs>
<linearGradient id="paint0_linear_2086_5956" x1="117.495" y1="182.689" x2="117.495" y2="443.892" gradientUnits="userSpaceOnUse">
<stop stop-color="#5EA143"/>
<stop offset="1" stop-color="#AFC000"/>
</linearGradient>
<linearGradient id="paint1_linear_2086_5956" x1="144.135" y1="89.5274" x2="99.2151" y2="157.084" gradientUnits="userSpaceOnUse">
<stop stop-color="#5EA143"/>
<stop offset="1" stop-color="#AFC000"/>
</linearGradient>
<clipPath id="clip0_2086_5956">
<rect width="279" height="428" fill="white"/>
</clipPath>
</defs>
</svg>
