<svg width="279" height="428" viewBox="0 0 279 428" fill="none" xmlns="http://www.w3.org/2000/svg">
<g clip-path="url(#clip0_2086_7764)">
<path d="M47.7586 94.9369C56.3648 89.9685 67.369 92.9171 72.3377 101.522L112.379 170.871C117.347 179.476 114.399 190.48 105.793 195.449C97.1865 200.417 86.1823 197.468 81.2136 188.863L41.1727 119.514C36.204 110.909 39.1526 99.9052 47.7586 94.9369Z" fill="#B9A8A9"/>
<path d="M103.22 70.3822C111.826 65.4138 122.83 68.3624 127.799 76.9677L167.84 146.316C172.808 154.922 169.86 165.926 161.254 170.894C152.648 175.862 141.643 172.914 136.675 164.309L96.6338 94.9598C91.6652 86.3545 94.6139 75.3506 103.22 70.3822Z" fill="#B9A8A9"/>
<path d="M185.224 109.859C187.341 109.012 266.31 77.9567 276.248 91.2315C285.036 102.97 267.299 114.323 255.291 121.289C245.031 127.241 182.684 158.966 171.464 180.769C162.489 198.21 105.913 189.024 78.7466 182.25C96.8807 146.337 143.564 81.5793 185.224 109.859Z" fill="#B9A8A9"/>
<path d="M47.7586 94.9369C56.3648 89.9685 67.369 92.9171 72.3377 101.522L112.379 170.871C117.347 179.476 114.399 190.48 105.793 195.449C97.1865 200.417 86.1823 197.468 81.2136 188.863L41.1727 119.514C36.204 110.909 39.1526 99.9052 47.7586 94.9369Z" stroke="#B9A8A9"/>
<path d="M103.22 70.3822C111.826 65.4138 122.83 68.3624 127.799 76.9677L167.84 146.316C172.808 154.922 169.86 165.926 161.254 170.894C152.648 175.862 141.643 172.914 136.675 164.309L96.6338 94.9598C91.6652 86.3545 94.6139 75.3506 103.22 70.3822Z" stroke="#B9A8A9"/>
<path d="M185.224 109.859C187.341 109.012 266.31 77.9567 276.248 91.2315C285.036 102.97 267.299 114.323 255.291 121.289C245.031 127.241 182.684 158.966 171.464 180.769C162.489 198.21 105.913 189.024 78.7466 182.25C96.8807 146.337 143.564 81.5793 185.224 109.859Z" stroke="#B9A8A9"/>
<mask id="mask0_2086_7764" style="mask-type:alpha" maskUnits="userSpaceOnUse" x="38" y="67" width="242" height="132">
<path d="M47.7586 94.9369C56.3648 89.9685 67.369 92.9171 72.3377 101.522L112.379 170.871C117.347 179.476 114.399 190.48 105.793 195.449C97.1865 200.417 86.1823 197.468 81.2136 188.863L41.1727 119.514C36.204 110.909 39.1526 99.9052 47.7586 94.9369Z" fill="#B9A8A9"/>
<path d="M103.22 70.3822C111.826 65.4138 122.83 68.3624 127.799 76.9677L167.84 146.316C172.809 154.922 169.86 165.926 161.254 170.894C152.648 175.862 141.644 172.914 136.675 164.309L96.634 94.9598C91.6654 86.3545 94.6142 75.3506 103.22 70.3822Z" fill="#B9A8A9"/>
<path d="M185.224 109.859C187.341 109.012 266.31 77.9567 276.248 91.2315C285.036 102.97 267.299 114.323 255.291 121.289C245.031 127.241 182.684 158.966 171.464 180.769C162.489 198.21 105.913 189.024 78.7466 182.25C96.8807 146.337 143.564 81.5793 185.224 109.859Z" fill="#B9A8A9"/>
<path d="M47.7586 94.9369C56.3648 89.9685 67.369 92.9171 72.3377 101.522L112.379 170.871C117.347 179.476 114.399 190.48 105.793 195.449C97.1865 200.417 86.1823 197.468 81.2136 188.863L41.1727 119.514C36.204 110.909 39.1526 99.9052 47.7586 94.9369Z" stroke="#B9A8A9"/>
<path d="M103.22 70.3822C111.826 65.4138 122.83 68.3624 127.799 76.9677L167.84 146.316C172.809 154.922 169.86 165.926 161.254 170.894C152.648 175.862 141.644 172.914 136.675 164.309L96.634 94.9598C91.6654 86.3545 94.6142 75.3506 103.22 70.3822Z" stroke="#B9A8A9"/>
<path d="M185.224 109.859C187.341 109.012 266.31 77.9567 276.248 91.2315C285.036 102.97 267.299 114.323 255.291 121.289C245.031 127.241 182.684 158.966 171.464 180.769C162.489 198.21 105.913 189.024 78.7466 182.25C96.8807 146.337 143.564 81.5793 185.224 109.859Z" stroke="#B9A8A9"/>
</mask>
<g mask="url(#mask0_2086_7764)">
<path d="M89.966 69.0059C77.0532 120.654 100.974 163.895 173.158 183.157V187.965H38.3149V69.0059H89.966Z" fill="url(#paint0_linear_2086_7764)"/>
<path d="M119.813 68.1595C110.923 78.6872 110.923 85.7282 124.259 110.282L103.09 116.844L89.9658 85.7282C89.9658 85.7282 128.704 57.6318 119.813 68.1595Z" fill="url(#paint1_linear_2086_7764)"/>
<path d="M229.466 92.5016L270.321 111.34L289.584 103.932L271.591 80.2246L229.466 92.5016Z" fill="#575050"/>
</g>
<path d="M153.255 133.043C168.919 134.979 183.187 123.852 185.123 108.19C187.06 92.5271 175.933 78.26 160.269 76.3232C144.606 74.3865 130.338 85.5135 128.401 101.176C126.464 116.839 137.591 131.106 153.255 133.043Z" fill="url(#paint2_linear_2086_7764)"/>
<mask id="mask1_2086_7764" style="mask-type:alpha" maskUnits="userSpaceOnUse" x="128" y="76" width="58" height="58">
<path d="M153.242 133.034C168.906 134.967 183.178 123.837 185.118 108.175C187.059 92.5131 175.934 78.2494 160.27 76.3164C144.606 74.3834 130.335 85.5131 128.394 101.175C126.453 116.837 137.578 131.101 153.242 133.034Z" fill="url(#paint3_linear_2086_7764)"/>
</mask>
<g mask="url(#mask1_2086_7764)">
<path d="M132.994 150.153C150.398 152.3 166.255 139.934 168.412 122.532C170.568 105.129 158.207 89.2808 140.802 87.1331C123.398 84.9853 107.541 97.3516 105.385 114.754C103.228 132.156 115.589 148.005 132.994 150.153Z" fill="white"/>
</g>
<path d="M99.9301 154.23C115.594 156.167 129.862 145.04 131.798 129.377C133.735 113.715 122.608 99.4475 106.944 97.5107C91.2806 95.574 77.0126 106.701 75.0757 122.364C73.1388 138.026 84.2665 152.293 99.9301 154.23Z" fill="url(#paint4_linear_2086_7764)"/>
<mask id="mask2_2086_7764" style="mask-type:alpha" maskUnits="userSpaceOnUse" x="74" y="97" width="59" height="58">
<path d="M99.9173 154.222C115.581 156.155 129.853 145.025 131.793 129.363C133.734 113.701 122.609 99.4369 106.945 97.5039C91.281 95.5709 77.0096 106.701 75.0689 122.363C73.1282 138.025 84.2532 152.289 99.9173 154.222Z" fill="url(#paint5_linear_2086_7764)"/>
</mask>
<g mask="url(#mask2_2086_7764)">
<path d="M79.6684 171.338C97.0728 173.486 112.93 161.12 115.086 143.717C117.243 126.315 104.881 110.466 87.4769 108.319C70.0725 106.171 54.2154 118.537 52.0591 135.94C49.9028 153.342 62.2639 169.19 79.6684 171.338Z" fill="white"/>
</g>
<path d="M108.594 130.39C113.855 130.39 118.12 126.126 118.12 120.865C118.12 115.604 113.855 111.34 108.594 111.34C103.333 111.34 99.0684 115.604 99.0684 120.865C99.0684 126.126 103.333 130.39 108.594 130.39Z" fill="black"/>
<path d="M153.048 113.035C158.309 113.035 162.574 108.77 162.574 103.51C162.574 98.249 158.309 93.9844 153.048 93.9844C147.787 93.9844 143.522 98.249 143.522 103.51C143.522 108.77 147.787 113.035 153.048 113.035Z" fill="black"/>
<path d="M2.11683 121.538C-1.39048 115.464 0.690914 107.696 6.76572 104.189L179.09 4.70364C185.165 1.19655 192.933 3.27781 196.44 9.35229C199.948 15.4267 197.866 23.1941 191.792 26.7012L19.4668 126.187C13.392 129.694 5.62415 127.613 2.11683 121.538Z" fill="#5EA143"/>
<path d="M44.8022 58.364C45.4618 51.5596 49.367 45.4931 55.2874 42.0755L100.582 15.9257C106.503 12.5077 113.71 12.1592 119.932 14.99L143.167 25.5595L42.3386 83.7693L44.8022 58.364Z" fill="#5EA143"/>
<mask id="mask3_2086_7764" style="mask-type:alpha" maskUnits="userSpaceOnUse" x="42" y="13" width="102" height="71">
<path d="M44.8022 58.364C45.4618 51.5596 49.367 45.4931 55.2874 42.0755L100.582 15.9257C106.503 12.5077 113.71 12.1592 119.932 14.99L143.167 25.5595L42.3386 83.7693L44.8022 58.364Z" fill="#5EA143"/>
</mask>
<g mask="url(#mask3_2086_7764)">
<path d="M40.8137 59.8181C40.5692 52.1256 44.5194 44.9067 51.1303 40.9651L110.259 5.71094L77.4765 182.083L41.5088 81.6813L40.8137 59.8181Z" fill="url(#paint6_linear_2086_7764)"/>
</g>
<path d="M25.9218 205.609C24.5158 193.063 34.334 182.084 46.9584 182.084H223.998C236.622 182.084 246.44 193.063 245.034 205.609L222.26 408.813C221.059 419.524 212.002 427.623 201.223 427.623H69.7331C58.9541 427.623 49.8966 419.524 48.6963 408.813L25.9218 205.609Z" fill="#5EA143"/>
<mask id="mask4_2086_7764" style="mask-type:alpha" maskUnits="userSpaceOnUse" x="25" y="182" width="221" height="246">
<path d="M25.9218 205.609C24.5158 193.063 34.334 182.084 46.9584 182.084H223.998C236.622 182.084 246.44 193.063 245.034 205.609L222.26 408.813C221.059 419.524 212.002 427.623 201.223 427.623H69.7331C58.9541 427.623 49.8966 419.524 48.6963 408.813L25.9218 205.609Z" fill="#5EA143"/>
</mask>
<g mask="url(#mask4_2086_7764)">
<path d="M76.4693 182.084C76.4693 182.084 93.1411 364.122 211.684 426.933V443.287H44.4943L14.8179 182.084H76.4693Z" fill="url(#paint7_linear_2086_7764)"/>
</g>
<path d="M175.698 238.389H95.2579C88.2433 238.389 82.5569 244.075 82.5569 251.089C82.5569 258.103 88.2433 263.789 95.2579 263.789H175.698C182.713 263.789 188.399 258.103 188.399 251.089C188.399 244.075 182.713 238.389 175.698 238.389Z" fill="white"/>
<path d="M175.698 344.648H95.2579C88.2433 344.648 82.5569 350.335 82.5569 357.349C82.5569 364.363 88.2433 370.049 95.2579 370.049H175.698C182.713 370.049 188.399 364.363 188.399 357.349C188.399 350.335 182.713 344.648 175.698 344.648Z" fill="white"/>
<path d="M89.239 336.852L136.947 279.495C140.969 274.66 146.933 271.863 153.222 271.863H180.699L135.116 328.899C131.099 333.925 125.014 336.852 118.58 336.852H89.239Z" fill="white"/>
</g>
<defs>
<linearGradient id="paint0_linear_2086_7764" x1="105.736" y1="65.7986" x2="105.736" y2="187.965" gradientUnits="userSpaceOnUse">
<stop stop-color="#B9A8A9"/>
<stop offset="1" stop-color="#575050"/>
</linearGradient>
<linearGradient id="paint1_linear_2086_7764" x1="105.736" y1="65.7989" x2="105.736" y2="187.966" gradientUnits="userSpaceOnUse">
<stop stop-color="#B9A8A9"/>
<stop offset="1" stop-color="#575050"/>
</linearGradient>
<linearGradient id="paint2_linear_2086_7764" x1="146.304" y1="118.533" x2="188.628" y2="79.8275" gradientUnits="userSpaceOnUse">
<stop stop-color="white"/>
<stop offset="1" stop-color="#B9A8A9"/>
</linearGradient>
<linearGradient id="paint3_linear_2086_7764" x1="164.293" y1="105.819" x2="194.869" y2="74.1827" gradientUnits="userSpaceOnUse">
<stop stop-color="white"/>
<stop offset="1" stop-color="#B9A8A9"/>
</linearGradient>
<linearGradient id="paint4_linear_2086_7764" x1="92.9792" y1="139.72" x2="135.303" y2="101.015" gradientUnits="userSpaceOnUse">
<stop stop-color="white"/>
<stop offset="1" stop-color="#B9A8A9"/>
</linearGradient>
<linearGradient id="paint5_linear_2086_7764" x1="110.968" y1="127.006" x2="141.544" y2="95.3702" gradientUnits="userSpaceOnUse">
<stop stop-color="white"/>
<stop offset="1" stop-color="#B9A8A9"/>
</linearGradient>
<linearGradient id="paint6_linear_2086_7764" x1="73.2627" y1="-1.11341" x2="61.6562" y2="79.1799" gradientUnits="userSpaceOnUse">
<stop stop-color="#5EA143"/>
<stop offset="1" stop-color="#AFC000"/>
</linearGradient>
<linearGradient id="paint7_linear_2086_7764" x1="113.251" y1="182.084" x2="113.251" y2="443.287" gradientUnits="userSpaceOnUse">
<stop stop-color="#5EA143"/>
<stop offset="1" stop-color="#AFC000"/>
</linearGradient>
<clipPath id="clip0_2086_7764">
<rect width="279" height="428" fill="white"/>
</clipPath>
</defs>
</svg>
