<svg width="25" height="25" viewBox="0 0 25 25" fill="none" xmlns="http://www.w3.org/2000/svg">
<circle cx="12.5" cy="12.5" r="12.5" fill="#C9FFE2"/>
<path d="M16.7499 8.50016C16.7499 6.50016 15.0833 4.8335 12.9999 4.8335C10.9166 4.8335 9.24995 6.50016 9.24995 8.50016C9.24995 10.5002 10.9166 12.1668 12.9999 12.1668C15.0833 12.1668 16.7499 10.5002 16.7499 8.50016ZM10.9166 8.50016C10.9166 7.41683 11.8333 6.50016 12.9999 6.50016C14.1666 6.50016 15.0833 7.41683 15.0833 8.50016C15.0833 9.5835 14.1666 10.5002 12.9999 10.5002C11.8333 10.5002 10.9166 9.5835 10.9166 8.50016ZM8.49995 17.0002C8.83328 15.5835 9.99995 14.6668 11.3333 14.6668H14.6666C15.3333 14.6668 15.9999 14.9168 16.5833 15.3335C16.9166 15.6668 17.5 15.5835 17.75 15.2502C18.0833 14.9168 17.9999 14.3335 17.6666 14.0835C16.8333 13.4168 15.7499 13.0002 14.6666 13.0002H11.3333C9.24995 13.0002 7.41662 14.4168 6.83328 16.5835L6.41662 18.1668C6.16662 18.9168 6.33328 19.7502 6.83328 20.4168C7.33328 21.0002 7.99995 21.3335 8.83328 21.3335H14.5833C15.0833 21.3335 15.4166 21.0002 15.4166 20.5002C15.4166 20.0002 15.0833 19.6668 14.5833 19.6668H8.83328C8.49995 19.6668 8.33328 19.5002 8.24995 19.3335C7.99995 19.1668 7.91662 18.8335 7.99995 18.5835L8.49995 17.0002Z" fill="#008229"/>
<path d="M18 21.3335C18.5 21.3335 18.8333 21.0002 18.8333 20.5002V19.6668H19.6667C20.1667 19.6668 20.5 19.3335 20.5 18.8335C20.5 18.3335 20.1667 18.0002 19.6667 18.0002H18.8333V17.1668C18.8333 16.6668 18.5 16.3335 18 16.3335C17.5 16.3335 17.1667 16.6668 17.1667 17.1668V18.0002H16.3333C15.8333 18.0002 15.5 18.3335 15.5 18.8335C15.5 19.3335 15.8333 19.6668 16.3333 19.6668H17.1667V20.5002C17.1667 21.0002 17.5 21.3335 18 21.3335Z" fill="#008229"/>
</svg>
