<svg width="49" height="49" viewBox="0 0 49 49" fill="none" xmlns="http://www.w3.org/2000/svg">
<g filter="url(#filter0_d_1188_1341)">
<circle cx="24.5" cy="20.5" r="20.5" fill="#C9FFE2"/>
<circle cx="24.5" cy="20.5" r="20" stroke="#00D363"/>
</g>
<path d="M32.0435 20.6614C31.8831 20.4789 31.7947 20.2443 31.7947 20.0014C31.7947 19.7585 31.8831 19.5238 32.0435 19.3414L33.3235 17.9014C33.4645 17.744 33.5521 17.5461 33.5736 17.3359C33.5952 17.1257 33.5496 16.914 33.4435 16.7314L31.4435 13.2714C31.3384 13.0889 31.1783 12.9442 30.9862 12.858C30.7941 12.7719 30.5796 12.7485 30.3735 12.7914L28.4935 13.1714C28.2542 13.2208 28.0052 13.1809 27.7933 13.0594C27.5815 12.9378 27.4214 12.7428 27.3435 12.5114L26.7335 10.6814C26.6664 10.4827 26.5386 10.3102 26.3681 10.1882C26.1976 10.0662 25.9931 10.0008 25.7835 10.0014H21.7835C21.5654 9.98998 21.3496 10.0503 21.169 10.1731C20.9884 10.2959 20.853 10.4744 20.7835 10.6814L20.2235 12.5114C20.1455 12.7428 19.9854 12.9378 19.7736 13.0594C19.5617 13.1809 19.3127 13.2208 19.0735 13.1714L17.1435 12.7914C16.948 12.7637 16.7488 12.7946 16.5708 12.88C16.3928 12.9654 16.2442 13.1016 16.1435 13.2714L14.1435 16.7314C14.0346 16.912 13.9857 17.1224 14.0036 17.3326C14.0216 17.5427 14.1055 17.7418 14.2435 17.9014L15.5135 19.3414C15.6738 19.5238 15.7622 19.7585 15.7622 20.0014C15.7622 20.2443 15.6738 20.4789 15.5135 20.6614L14.2435 22.1014C14.1055 22.2609 14.0216 22.46 14.0036 22.6701C13.9857 22.8803 14.0346 23.0907 14.1435 23.2714L16.1435 26.7314C16.2485 26.9138 16.4086 27.0585 16.6007 27.1447C16.7928 27.2309 17.0073 27.2542 17.2135 27.2114L19.0935 26.8314C19.3327 26.7819 19.5817 26.8218 19.7936 26.9434C20.0054 27.0649 20.1655 27.2599 20.2435 27.4914L20.8535 29.3214C20.923 29.5283 21.0584 29.7069 21.239 29.8296C21.4196 29.9524 21.6354 30.0127 21.8535 30.0014H25.8535C26.0631 30.0019 26.2676 29.9365 26.4381 29.8145C26.6086 29.6925 26.7364 29.52 26.8035 29.3214L27.4135 27.4914C27.4915 27.2599 27.6515 27.0649 27.8633 26.9434C28.0752 26.8218 28.3242 26.7819 28.5635 26.8314L30.4435 27.2114C30.6496 27.2542 30.8641 27.2309 31.0562 27.1447C31.2483 27.0585 31.4084 26.9138 31.5135 26.7314L33.5135 23.2714C33.6196 23.0887 33.6652 22.877 33.6436 22.6669C33.6221 22.4567 33.5345 22.2587 33.3935 22.1014L32.0435 20.6614ZM30.5535 22.0014L31.3535 22.9014L30.0735 25.1214L28.8935 24.8814C28.1732 24.7341 27.424 24.8565 26.788 25.2252C26.1521 25.5938 25.6736 26.1832 25.4435 26.8814L25.0635 28.0014H22.5035L22.1435 26.8614C21.9133 26.1632 21.4348 25.5738 20.7989 25.2052C20.1629 24.8365 19.4137 24.7141 18.6935 24.8614L17.5135 25.1014L16.2135 22.8914L17.0135 21.9914C17.5054 21.4413 17.7774 20.7293 17.7774 19.9914C17.7774 19.2534 17.5054 18.5414 17.0135 17.9914L16.2135 17.0914L17.4935 14.8914L18.6735 15.1314C19.3937 15.2786 20.1429 15.1562 20.7789 14.7876C21.4148 14.4189 21.8933 13.8295 22.1235 13.1314L22.5035 12.0014H25.0635L25.4435 13.1414C25.6736 13.8395 26.1521 14.4289 26.788 14.7976C27.424 15.1662 28.1732 15.2886 28.8935 15.1414L30.0735 14.9014L31.3535 17.1214L30.5535 18.0214C30.067 18.5701 29.7984 19.278 29.7984 20.0114C29.7984 20.7447 30.067 21.4526 30.5535 22.0014ZM23.7835 16.0014C22.9923 16.0014 22.219 16.236 21.5612 16.6755C20.9034 17.115 20.3907 17.7397 20.0879 18.4706C19.7852 19.2015 19.706 20.0058 19.8603 20.7817C20.0147 21.5576 20.3956 22.2704 20.955 22.8298C21.5144 23.3892 22.2272 23.7702 23.0031 23.9245C23.779 24.0788 24.5833 23.9996 25.3142 23.6969C26.0451 23.3941 26.6698 22.8814 27.1093 22.2236C27.5489 21.5658 27.7835 20.7925 27.7835 20.0014C27.7835 18.9405 27.362 17.9231 26.6119 17.1729C25.8617 16.4228 24.8443 16.0014 23.7835 16.0014ZM23.7835 22.0014C23.3879 22.0014 23.0012 21.8841 22.6723 21.6643C22.3434 21.4445 22.0871 21.1322 21.9357 20.7667C21.7843 20.4013 21.7447 19.9991 21.8219 19.6112C21.8991 19.2232 22.0895 18.8669 22.3692 18.5871C22.6489 18.3074 23.0053 18.117 23.3933 18.0398C23.7812 17.9626 24.1834 18.0022 24.5488 18.1536C24.9143 18.305 25.2266 18.5613 25.4464 18.8902C25.6662 19.2191 25.7835 19.6058 25.7835 20.0014C25.7835 20.5318 25.5727 21.0405 25.1977 21.4156C24.8226 21.7906 24.3139 22.0014 23.7835 22.0014Z" fill="#008229"/>
<defs>
<filter id="filter0_d_1188_1341" x="0" y="0" width="49" height="49" filterUnits="userSpaceOnUse" color-interpolation-filters="sRGB">
<feFlood flood-opacity="0" result="BackgroundImageFix"/>
<feColorMatrix in="SourceAlpha" type="matrix" values="0 0 0 0 0 0 0 0 0 0 0 0 0 0 0 0 0 0 127 0" result="hardAlpha"/>
<feOffset dy="4"/>
<feGaussianBlur stdDeviation="2"/>
<feComposite in2="hardAlpha" operator="out"/>
<feColorMatrix type="matrix" values="0 0 0 0 0 0 0 0 0 0 0 0 0 0 0 0 0 0 0.25 0"/>
<feBlend mode="normal" in2="BackgroundImageFix" result="effect1_dropShadow_1188_1341"/>
<feBlend mode="normal" in="SourceGraphic" in2="effect1_dropShadow_1188_1341" result="shape"/>
</filter>
</defs>
</svg>
