<svg width="17" height="17" viewBox="0 0 17 17" fill="none" xmlns="http://www.w3.org/2000/svg">
<path d="M16.5963 8.09619H15.7834V10.524H16.5963V8.09619Z" fill="#00762B"/>
<path d="M15.7836 10.5239H14.9761V11.3314H15.7836V10.5239Z" fill="#00762B"/>
<path d="M15.7836 7.28857H14.9761V8.09607H15.7836V7.28857Z" fill="#00762B"/>
<path d="M14.976 13.7646H14.1685V14.5721H14.976V13.7646Z" fill="#00762B"/>
<path d="M14.976 8.90381H14.1685V9.71662H14.976V8.90381Z" fill="#00762B"/>
<path d="M14.9759 6.47607H12.5481V7.28889H14.9759V6.47607Z" fill="#00762B"/>
<path d="M14.1685 14.5723H13.3557V15.3798H14.1685V14.5723Z" fill="#00762B"/>
<path d="M14.1685 12.9517H13.3557V13.7645H14.1685V12.9517Z" fill="#00762B"/>
<path d="M12.5482 11.3315V12.1444H11.7354V12.9519H13.3557V12.1444H14.976V11.3315H12.5482Z" fill="#00762B"/>
<path d="M12.5481 8.09619V10.524H14.1684V9.7165H13.3556V8.90369H14.1684V8.09619H12.5481Z" fill="#00762B"/>
<path d="M13.3557 15.3799H11.7354V16.1927H13.3557V15.3799Z" fill="#00762B"/>
<path d="M12.5482 5.66846H11.7354V6.47596H12.5482V5.66846Z" fill="#00762B"/>
<path d="M11.7354 12.9517H10.1204V13.7645H11.7354V12.9517Z" fill="#00762B"/>
<path d="M11.7354 4.85547H9.30762V5.66828H11.7354V4.85547Z" fill="#00762B"/>
<path d="M11.7355 16.1924H3.64453V16.9999H11.7355V16.1924Z" fill="#00762B"/>
<path d="M4.45203 6.47607V7.28889H3.64453V8.09639H4.45203V8.90389H10.928V8.09639H11.7355V7.28889H10.928V6.47607H4.45203Z" fill="#00762B"/>
<path d="M10.9279 0.807617H10.1204V2.42793H10.9279V0.807617Z" fill="#00762B"/>
<path d="M10.1203 0H8.5V0.8075H10.1203V0Z" fill="#00762B"/>
<path d="M10.1204 2.42773H9.30762V3.24055H10.1204V2.42773Z" fill="#00762B"/>
<path d="M8.50007 0.807617H7.68726V1.62043H8.50007V0.807617Z" fill="#00762B"/>
<path d="M8.50007 4.04834H7.68726V5.66865H8.50007V4.04834Z" fill="#00762B"/>
<path d="M7.68727 0H6.07227V0.8075H7.68727V0Z" fill="#00762B"/>
<path d="M7.68714 3.24072H6.87964V4.04822H7.68714V3.24072Z" fill="#00762B"/>
<path d="M6.87977 2.42773H6.07227V3.24055H6.87977V2.42773Z" fill="#00762B"/>
<path d="M10.1205 13.7646H5.25952V14.5721H10.1205V13.7646Z" fill="#00762B"/>
<path d="M6.07233 0.807617H5.25952V2.42793H6.07233V0.807617Z" fill="#00762B"/>
<path d="M6.87984 4.85547H3.64453V5.66828H6.87984V4.85547Z" fill="#00762B"/>
<path d="M5.25953 12.9517H3.64453V13.7645H5.25953V12.9517Z" fill="#00762B"/>
<path d="M3.64448 15.3799H2.02417V16.1927H3.64448V15.3799Z" fill="#00762B"/>
<path d="M3.64448 11.3315H2.83167V12.1444H2.02417V12.9519H3.64448V11.3315Z" fill="#00762B"/>
<path d="M3.64436 5.66846H2.83154V6.47596H3.64436V5.66846Z" fill="#00762B"/>
<path d="M2.83167 6.47607H2.02417V11.3317H2.83167V6.47607Z" fill="#00762B"/>
<path d="M2.02424 14.5723H1.21143V15.3798H2.02424V14.5723Z" fill="#00762B"/>
<path d="M2.02424 12.9517H1.21143V13.7645H2.02424V12.9517Z" fill="#00762B"/>
<path d="M1.21131 13.7646H0.403809V14.5721H1.21131V13.7646Z" fill="#00762B"/>
</svg>
