<svg width="92" height="5" viewBox="0 0 92 5" fill="none" xmlns="http://www.w3.org/2000/svg">
<path d="M0.220588 2.5C0.220588 1.24112 1.24112 0.220588 2.5 0.220588H89.5C90.7589 0.220588 91.7794 1.24112 91.7794 2.5C91.7794 3.75888 90.7589 4.77941 89.5 4.77941H2.5C1.24112 4.77941 0.220588 3.75888 0.220588 2.5Z" fill="white" stroke="#2D3748" stroke-width="0.441176"/>
<path d="M0.112793 2.49983C0.112793 1.28155 1.1004 0.293945 2.31868 0.293945H36.3484V4.70571H2.31867C1.1004 4.70571 0.112793 3.7181 0.112793 2.49983Z" fill="#48BB78"/>
<rect x="36.3484" y="0.293945" width="0.33865" height="0.882353" fill="#48BB78"/>
<rect x="36.3484" y="2.05859" width="0.33865" height="0.882353" fill="#48BB78"/>
<rect x="36.687" y="1.17627" width="0.338654" height="0.882353" fill="#48BB78"/>
<rect x="37.0256" y="0.293945" width="0.33865" height="0.882353" fill="#48BB78"/>
<rect x="37.0256" y="2.05859" width="0.33865" height="0.882353" fill="#48BB78"/>
<rect x="37.0256" y="3.82324" width="0.33865" height="0.882353" fill="#48BB78"/>
<rect x="36.687" y="2.94092" width="0.338654" height="0.882353" fill="#48BB78"/>
<rect x="36.3484" y="3.82324" width="0.33865" height="0.882353" fill="#48BB78"/>
</svg>
