<svg width="107" height="135" viewBox="0 0 107 135" fill="none" xmlns="http://www.w3.org/2000/svg">
<path d="M31.2551 79.0228C27.2189 85.3216 24.0958 92.5169 23.5198 100.149C23.5162 100.196 23.5124 100.243 23.509 100.289C23.4931 100.512 23.4795 100.736 23.468 100.959C23.4631 101.055 23.4594 101.15 23.4553 101.245C23.449 101.392 23.4441 101.538 23.4397 101.685C23.437 101.776 23.4338 101.867 23.4319 101.958C23.4312 101.991 23.4305 102.024 23.4299 102.057C23.4298 102.064 23.4309 102.072 23.4309 102.079C23.4275 102.274 23.4241 102.469 23.4241 102.664C23.4243 119.963 36.8579 134.004 53.4934 134.178C46.6177 134.136 39.8135 132.712 33.4592 129.982C27.0089 127.21 21.1472 123.147 16.2102 118.026C11.2731 112.904 7.35586 106.822 4.68384 100.13C2.03046 93.4846 0.655877 86.3644 0.636963 79.1722C0.636843 79.0896 0.703801 79.0231 0.786377 79.0228H31.2551ZM41.9944 0.276719C42.0494 0.237389 42.0955 0.246414 42.1467 0.290391C43.3426 1.32098 57.8836 14.1443 67.6868 36.5804C67.7331 36.6859 67.8784 36.7029 67.9475 36.6107C73.8637 28.6956 79.5549 24.4661 80.3079 23.9232C80.3589 23.8864 80.4229 23.8854 80.4739 23.9222C82.0841 25.0832 106.762 43.4532 106.975 79.0218L106.977 79.0238C106.977 79.091 106.975 79.1588 106.975 79.2259C106.975 79.3122 106.977 79.3992 106.977 79.4857V85.9017C106.977 86.2563 106.792 86.568 106.514 86.7455C106.473 86.7713 106.443 86.8122 106.437 86.8597C105.807 91.4074 104.632 95.8667 102.93 100.13C100.258 106.822 96.3418 112.904 91.4045 118.026C86.4673 123.148 80.6053 127.21 74.1545 129.982C67.7999 132.712 60.9954 134.136 54.1194 134.178C70.7554 134.004 84.1895 119.964 84.1897 102.664C84.1897 102.473 84.1852 102.282 84.1819 102.091C84.1821 102.08 84.185 102.068 84.1848 102.057C84.1838 102.002 84.1812 101.947 84.1799 101.892C84.1791 101.857 84.1779 101.822 84.177 101.787C84.1716 101.586 84.1645 101.385 84.1555 101.184C84.1522 101.109 84.1496 101.034 84.1458 100.959C84.1351 100.752 84.1221 100.544 84.1077 100.337C84.1021 100.258 84.0952 100.18 84.0891 100.101C82.3519 77.5067 58.3244 58.7421 54.3596 55.7914C54.0197 55.5384 53.5961 55.5385 53.2561 55.7914C50.6276 57.7475 39.1805 66.6558 31.2561 79.0218H0.786377C0.703741 79.0216 0.636822 78.9522 0.636963 78.8695C0.71942 30.4279 40.0509 1.66833 41.9944 0.276719Z" fill="#575050"/>
<path d="M53.3389 55.4906C53.6789 55.2377 54.1024 55.2376 54.4424 55.4906C58.4071 58.4412 82.4346 77.2058 84.1719 99.8001C84.178 99.8789 84.1849 99.9576 84.1904 100.036C84.2049 100.244 84.2178 100.451 84.2285 100.659C84.2324 100.733 84.2349 100.808 84.2383 100.883C84.2473 101.084 84.2544 101.285 84.2598 101.487C84.2607 101.521 84.2619 101.556 84.2627 101.591C84.264 101.646 84.2666 101.701 84.2676 101.756C84.2678 101.768 84.2648 101.779 84.2646 101.79C84.2679 101.981 84.2725 102.172 84.2725 102.364C84.2723 119.771 70.6696 133.882 53.8896 133.882C37.1098 133.882 23.507 119.771 23.5068 102.364C23.5068 102.168 23.5103 101.973 23.5137 101.779C23.5136 101.771 23.5126 101.764 23.5127 101.756C23.5133 101.723 23.5139 101.69 23.5146 101.658C23.5166 101.566 23.5198 101.475 23.5225 101.384C23.5268 101.237 23.5318 101.091 23.5381 100.945C23.5422 100.849 23.5459 100.754 23.5508 100.659C23.5623 100.435 23.5759 100.212 23.5918 99.9886C23.5952 99.9417 23.599 99.8948 23.6025 99.848C25.3095 77.2321 49.3714 58.4431 53.3389 55.4906Z" fill="#878787"/>
</svg>
