<svg width="16" height="14" viewBox="0 0 16 14" fill="none" xmlns="http://www.w3.org/2000/svg">
<g id="blank-calendar--blank-calendar-date-day-month-empty">
<g id="blank-calendar--blank-calendar-date-day-month-empty_2">
<path id="Vector" d="M3.60198 2.83185C3.37838 2.83185 3.16395 2.91481 3.00584 3.06248C2.84773 3.21015 2.75891 3.41044 2.75891 3.61928V11.0999C2.75891 11.3087 2.84773 11.509 3.00584 11.6567C3.16395 11.8043 3.37838 11.8873 3.60198 11.8873H12.8757C13.0993 11.8873 13.3138 11.8043 13.4719 11.6567C13.63 11.509 13.7188 11.3087 13.7188 11.0999V3.61928C13.7188 3.41044 13.63 3.21015 13.4719 3.06248C13.3138 2.91481 13.0993 2.83185 12.8757 2.83185H11.1896" stroke="#878787" stroke-linecap="round" stroke-linejoin="round"/>
<path id="Vector_2" d="M2.75891 5.58783H13.7188" stroke="#878787" stroke-linecap="round" stroke-linejoin="round"/>
<path id="Vector_3" d="M5.28809 1.6507V4.01299" stroke="#878787" stroke-linecap="round" stroke-linejoin="round"/>
<path id="Vector_4" d="M11.1896 1.6507V4.01299" stroke="#878787" stroke-linecap="round" stroke-linejoin="round"/>
<path id="Vector_5" d="M5.28809 2.83185H9.50343" stroke="#878787" stroke-linecap="round" stroke-linejoin="round"/>
</g>
</g>
</svg>
