<svg width="60" height="60" viewBox="0 0 60 60" fill="none" xmlns="http://www.w3.org/2000/svg">
<path fill-rule="evenodd" clip-rule="evenodd" d="M5.625 30C5.625 16.5426 16.5426 5.625 30 5.625C43.4574 5.625 54.375 16.5426 54.375 30C54.375 43.4574 43.4574 54.375 30 54.375C16.5426 54.375 5.625 43.4574 5.625 30ZM30 9.375C18.6137 9.375 9.375 18.6137 9.375 30C9.375 41.3863 18.6137 50.625 30 50.625C41.3863 50.625 50.625 41.3863 50.625 30C50.625 18.6137 41.3863 9.375 30 9.375Z" fill="#38A169"/>
<path fill-rule="evenodd" clip-rule="evenodd" d="M22.0312 20.625C21.6583 20.625 21.3006 20.7732 21.0369 21.0369C20.7732 21.3006 20.625 21.6583 20.625 22.0312V25.3125C20.625 26.348 19.7855 27.1875 18.75 27.1875C17.7145 27.1875 16.875 26.348 16.875 25.3125V22.0312C16.875 20.6637 17.4182 19.3522 18.3852 18.3852C19.3522 17.4182 20.6637 16.875 22.0312 16.875H25.3125C26.348 16.875 27.1875 17.7145 27.1875 18.75C27.1875 19.7855 26.348 20.625 25.3125 20.625H22.0312ZM32.8125 18.75C32.8125 17.7145 33.652 16.875 34.6875 16.875H37.9688C39.3363 16.875 40.6478 17.4182 41.6148 18.3852C42.5818 19.3522 43.125 20.6637 43.125 22.0312V25.3125C43.125 26.348 42.2855 27.1875 41.25 27.1875C40.2145 27.1875 39.375 26.348 39.375 25.3125V22.0312C39.375 21.6583 39.2268 21.3006 38.9631 21.0369C38.6994 20.7732 38.3417 20.625 37.9688 20.625H34.6875C33.652 20.625 32.8125 19.7855 32.8125 18.75ZM18.75 32.8125C19.7855 32.8125 20.625 33.652 20.625 34.6875V37.9688C20.625 38.3417 20.7732 38.6994 21.0369 38.9631C21.3006 39.2268 21.6583 39.375 22.0312 39.375H25.3125C26.348 39.375 27.1875 40.2145 27.1875 41.25C27.1875 42.2855 26.348 43.125 25.3125 43.125H22.0312C20.6637 43.125 19.3522 42.5818 18.3852 41.6148C17.4182 40.6478 16.875 39.3363 16.875 37.9688V34.6875C16.875 33.652 17.7145 32.8125 18.75 32.8125ZM41.25 32.8125C42.2855 32.8125 43.125 33.652 43.125 34.6875V37.9688C43.125 39.3363 42.5818 40.6478 41.6148 41.6148C40.6478 42.5818 39.3363 43.125 37.9688 43.125H34.6875C33.652 43.125 32.8125 42.2855 32.8125 41.25C32.8125 40.2145 33.652 39.375 34.6875 39.375H37.9688C38.3417 39.375 38.6994 39.2268 38.9631 38.9631C39.2268 38.6994 39.375 38.3417 39.375 37.9688V34.6875C39.375 33.652 40.2145 32.8125 41.25 32.8125Z" fill="url(#paint1_linear_946_475)"/>
<defs>
<linearGradient id="paint0_linear_946_475" x1="30" y1="5.625" x2="30" y2="54.375" gradientUnits="userSpaceOnUse">
<stop stop-color="#38A169"/>
</linearGradient>
<linearGradient id="paint1_linear_946_475" x1="30" y1="16.875" x2="30" y2="43.125" gradientUnits="userSpaceOnUse">
<stop stop-color="#38A169"/>
</linearGradient>
</defs>
</svg>
