<svg width="30" height="30" viewBox="0 0 30 30" fill="none" xmlns="http://www.w3.org/2000/svg">
<path fill-rule="evenodd" clip-rule="evenodd" d="M15.8838 2.86623C15.6493 2.63189 15.3315 2.50024 15 2.50024C14.6685 2.50024 14.3507 2.63189 14.1163 2.86623L5.36625 11.6162L2.86625 14.1162C2.74686 14.2315 2.65164 14.3695 2.58613 14.522C2.52061 14.6745 2.48613 14.8385 2.48469 15.0045C2.48325 15.1705 2.51487 15.335 2.57773 15.4887C2.64058 15.6423 2.73339 15.7819 2.85076 15.8992C2.96812 16.0166 3.10769 16.1094 3.26131 16.1723C3.41493 16.2351 3.57953 16.2667 3.7455 16.2653C3.91148 16.2638 4.0755 16.2294 4.22801 16.1639C4.38051 16.0983 4.51844 16.0031 4.63375 15.8837L5 15.5175V23.75C5 24.7445 5.39509 25.6984 6.09835 26.4016C6.80161 27.1049 7.75544 27.5 8.75 27.5H21.25C22.2446 27.5 23.1984 27.1049 23.9017 26.4016C24.6049 25.6984 25 24.7445 25 23.75V15.5175L25.3663 15.8837C25.602 16.1114 25.9178 16.2374 26.2455 16.2346C26.5732 16.2317 26.8868 16.1003 27.1185 15.8685C27.3503 15.6367 27.4817 15.3232 27.4846 14.9955C27.4874 14.6677 27.3615 14.352 27.1338 14.1162L15.8838 2.86623Z" fill="currentColor"/>
</svg>
