<svg width="30" height="30" viewBox="0 0 30 30" fill="none" xmlns="http://www.w3.org/2000/svg">
<path fill-rule="evenodd" clip-rule="evenodd" d="M6.25 11.25C6.25043 9.57284 6.73283 7.93118 7.63977 6.52045C8.54671 5.10971 9.83997 3.98933 11.3656 3.29272C12.8912 2.59611 14.5848 2.35261 16.2449 2.59121C17.9049 2.82981 19.4614 3.54047 20.7291 4.63856C21.9967 5.73665 22.9221 7.17591 23.395 8.78498C23.8679 10.394 23.8684 12.1051 23.3964 13.7145C22.9245 15.3238 22 16.7636 20.733 17.8624C19.466 18.9613 17.9099 19.6729 16.25 19.9125V26.25C16.25 26.5815 16.1183 26.8994 15.8839 27.1338C15.6495 27.3683 15.3315 27.5 15 27.5C14.6685 27.5 14.3505 27.3683 14.1161 27.1338C13.8817 26.8994 13.75 26.5815 13.75 26.25V19.9125C11.6671 19.6118 9.76237 18.5706 8.38489 16.9796C7.0074 15.3886 6.24946 13.3544 6.25 11.25ZM13.675 9.92496C14.0263 9.57323 14.5029 9.37539 15 9.37496C15.3315 9.37496 15.6495 9.24326 15.8839 9.00884C16.1183 8.77442 16.25 8.45648 16.25 8.12496C16.25 7.79344 16.1183 7.47549 15.8839 7.24107C15.6495 7.00665 15.3315 6.87496 15 6.87496C13.8397 6.87496 12.7269 7.33589 11.9064 8.15636C11.0859 8.97684 10.625 10.0896 10.625 11.25C10.625 11.5815 10.7567 11.8994 10.9911 12.1338C11.2255 12.3683 11.5435 12.5 11.875 12.5C12.2065 12.5 12.5245 12.3683 12.7589 12.1338C12.9933 11.8994 13.125 11.5815 13.125 11.25C13.125 10.7525 13.3225 10.275 13.675 9.92496Z" fill="currentColor"/>
</svg>
