<svg width="24" height="25" viewBox="0 0 24 25" fill="none" xmlns="http://www.w3.org/2000/svg">
<g id="ri:plant-line">
<path id="Vector" d="M5.99805 2.5C7.27383 2.49965 8.52545 2.84796 9.61764 3.5073C10.7098 4.16664 11.6011 5.11192 12.195 6.241C12.7951 5.39308 13.5899 4.70158 14.5127 4.22461C15.4355 3.74764 16.4593 3.49914 17.498 3.5H20.998V6C20.998 7.72391 20.3132 9.37721 19.0942 10.5962C17.8753 11.8152 16.222 12.5 14.498 12.5H12.998V13.5H17.998V20.5C17.998 21.0304 17.7873 21.5391 17.4123 21.9142C17.0372 22.2893 16.5285 22.5 15.998 22.5H7.99805C7.46761 22.5 6.95891 22.2893 6.58383 21.9142C6.20876 21.5391 5.99805 21.0304 5.99805 20.5V13.5H10.998V11.5H8.99805C7.14153 11.5 5.36105 10.7625 4.0483 9.44975C2.73554 8.13699 1.99805 6.35652 1.99805 4.5V2.5H5.99805ZM15.998 15.5H7.99805V20.5H15.998V15.5ZM18.998 5.5H17.498C16.3046 5.5 15.16 5.97411 14.3161 6.81802C13.4722 7.66193 12.998 8.80653 12.998 10V10.5H14.498C15.089 10.5 15.6742 10.3836 16.2201 10.1575C16.7661 9.93131 17.2622 9.59984 17.68 9.18198C18.0979 8.76412 18.4294 8.26804 18.6555 7.72208C18.8817 7.17611 18.998 6.59095 18.998 6V5.5ZM5.99805 4.5H3.99805C3.99805 5.82608 4.52483 7.09785 5.46251 8.03553C6.4002 8.97322 7.67196 9.5 8.99805 9.5H10.998C10.998 8.17392 10.4713 6.90215 9.53358 5.96447C8.5959 5.02678 7.32413 4.5 5.99805 4.5Z" fill="#48BB78"/>
</g>
</svg>
