<svg width="42" height="41" viewBox="0 0 42 41" fill="none" xmlns="http://www.w3.org/2000/svg">
<g id="star-badge--ribbon-reward-like-social-rating-media" clip-path="url(#clip0_1652_1286)">
<g id="star-badge--ribbon-reward-like-social-rating-media_2">
<path id="Ellipse 19" d="M35.8602 16.0553C35.8602 24.0714 29.2032 30.5699 20.9916 30.5699C12.7799 30.5699 6.12305 24.0714 6.12305 16.0553C6.12305 8.03914 12.7799 1.54077 20.9916 1.54077C29.2032 1.54077 35.8602 8.03914 35.8602 16.0553Z" fill="#008229" fill-opacity="0.38" stroke="#008229" stroke-width="3" stroke-linecap="round" stroke-linejoin="round"/>
<path id="Vector" d="M21.6 8.17466L23.6481 12.1966C23.6939 12.2983 23.7665 12.3864 23.8586 12.4517C23.9506 12.5171 24.0588 12.5574 24.1721 12.5686L28.7208 13.2428C28.8508 13.2593 28.9733 13.3116 29.0741 13.3936C29.1747 13.4756 29.2495 13.5839 29.2894 13.7058C29.3294 13.8278 29.333 13.9583 29.2997 14.0821C29.2665 14.206 29.1979 14.318 29.1018 14.4052L25.7438 17.5205C25.6938 17.6137 25.6676 17.7174 25.6676 17.8227C25.6676 17.928 25.6938 18.0317 25.7438 18.1249L26.3869 22.5421C26.4143 22.6697 26.4032 22.8025 26.3549 22.9241C26.3066 23.0457 26.2232 23.1511 26.1148 23.2274C26.0064 23.3037 25.8777 23.3476 25.7442 23.3539C25.6107 23.3602 25.4782 23.3285 25.3628 23.2628L21.3142 21.1704C21.2094 21.1242 21.0958 21.1003 20.9808 21.1003C20.8658 21.1003 20.7522 21.1242 20.6474 21.1704L16.5988 23.2628C16.4834 23.3285 16.3509 23.3602 16.2174 23.3539C16.0839 23.3476 15.9552 23.3037 15.8468 23.2274C15.7384 23.1511 15.655 23.0457 15.6067 22.9241C15.5584 22.8025 15.5473 22.6697 15.5747 22.5421L16.3368 18.1249C16.3696 18.0224 16.3759 17.9135 16.3551 17.8081C16.3343 17.7026 16.2871 17.6038 16.2177 17.5205L12.8598 14.3819C12.7707 14.2939 12.7082 14.1836 12.6791 14.0631C12.65 13.9426 12.6554 13.8167 12.6948 13.699C12.7341 13.5814 12.8059 13.4766 12.9022 13.3961C12.9985 13.3156 13.1157 13.2626 13.2408 13.2428L17.7896 12.5918C17.9028 12.5806 18.011 12.5403 18.103 12.475C18.1951 12.4096 18.2677 12.3216 18.3135 12.2199L20.3616 8.19791C20.4164 8.08405 20.5028 7.98743 20.6109 7.91899C20.719 7.85055 20.8445 7.81298 20.9734 7.81055C21.1022 7.80815 21.2292 7.84095 21.3399 7.90532C21.4507 7.96966 21.5408 8.06296 21.6 8.17466Z" fill="#008229" fill-opacity="0.38" stroke="#008229" stroke-width="3" stroke-linecap="round" stroke-linejoin="round"/>
<g id="Vector 2353">
<path d="M8.11194 23.1747L1.49988 34.3545L8.64438 32.4858L10.5587 39.4601L16.2957 29.7601" fill="#008229" fill-opacity="0.38"/>
<path d="M8.11194 23.1747L1.49988 34.3545L8.64438 32.4858L10.5587 39.4601L16.2957 29.7601" stroke="#008229" stroke-width="3" stroke-linecap="round" stroke-linejoin="round"/>
</g>
<g id="Vector 2354">
<path d="M33.8877 23.1747L40.4997 34.3545L33.3552 32.4858L31.4409 39.4601L25.704 29.7601" fill="#008229" fill-opacity="0.38"/>
<path d="M33.8877 23.1747L40.4997 34.3545L33.3552 32.4858L31.4409 39.4601L25.704 29.7601" stroke="#008229" stroke-width="3" stroke-linecap="round" stroke-linejoin="round"/>
</g>
</g>
</g>
<defs>
<clipPath id="clip0_1652_1286">
<rect width="42" height="41" fill="white"/>
</clipPath>
</defs>
</svg>
