<svg width="41" height="41" viewBox="0 0 41 41" fill="none" xmlns="http://www.w3.org/2000/svg">
<g clip-path="url(#clip0_1725_4725)">
<path d="M10.9821 39.5359H4.18362C2.68175 39.5359 1.46423 38.3185 1.46423 36.8167V30.0181" fill="#33363F" fill-opacity="0.66"/>
<path d="M10.9821 39.5359H4.18362C2.68175 39.5359 1.46423 38.3185 1.46423 36.8167V30.0181" stroke="#33363F" stroke-width="3" stroke-linecap="round" stroke-linejoin="round"/>
<path d="M39.5357 30.0181V36.8167C39.5357 38.3185 38.3183 39.5359 36.8162 39.5359H30.0178" fill="#33363F" fill-opacity="0.66"/>
<path d="M39.5357 30.0181V36.8167C39.5357 38.3185 38.3183 39.5359 36.8162 39.5359H30.0178" stroke="#33363F" stroke-width="3" stroke-linecap="round" stroke-linejoin="round"/>
<path d="M30.0178 1.46423H36.8162C38.3183 1.46423 39.5357 2.68175 39.5357 4.18362V10.9821" fill="#33363F" fill-opacity="0.66"/>
<path d="M30.0178 1.46423H36.8162C38.3183 1.46423 39.5357 2.68175 39.5357 4.18362V10.9821" stroke="#33363F" stroke-width="3" stroke-linecap="round" stroke-linejoin="round"/>
<path d="M1.46423 10.9821V4.18362C1.46423 2.68175 2.68175 1.46423 4.18362 1.46423H10.9821" fill="#33363F" fill-opacity="0.66"/>
<path d="M1.46423 10.9821V4.18362C1.46423 2.68175 2.68175 1.46423 4.18362 1.46423H10.9821" stroke="#33363F" stroke-width="3" stroke-linecap="round" stroke-linejoin="round"/>
<path d="M1.46423 20.5H39.5357H1.46423Z" fill="#33363F" fill-opacity="0.66"/>
<path d="M1.46423 20.5H39.5357" stroke="#33363F" stroke-width="3" stroke-linecap="round" stroke-linejoin="round"/>
</g>
<defs>
<clipPath id="clip0_1725_4725">
<rect width="41" height="41" fill="white"/>
</clipPath>
</defs>
</svg>
