<svg width="41" height="40" viewBox="0 0 41 40" fill="none" xmlns="http://www.w3.org/2000/svg">
<g clip-path="url(#clip0_1725_6039)">
<path d="M21.935 3.11437L26.5915 12.2858C26.6974 12.5186 26.864 12.7202 27.0747 12.8706C27.2853 13.021 27.5327 13.1149 27.7922 13.1429L38.0714 14.6287C38.3692 14.666 38.6498 14.7851 38.8806 14.9723C39.1113 15.1593 39.2829 15.4067 39.3749 15.6853C39.4671 15.9639 39.4759 16.2623 39.4007 16.5457C39.3257 16.8292 39.1693 17.0858 38.95 17.2858L31.5407 24.4572C31.3518 24.6296 31.2097 24.8453 31.128 25.0849C31.046 25.3244 31.027 25.5801 31.0721 25.8287L32.8585 35.9143C32.9104 36.2043 32.8776 36.5023 32.7642 36.7748C32.6509 37.0474 32.4614 37.2834 32.2172 37.4563C31.9732 37.6288 31.6842 37.7311 31.3834 37.7517C31.0826 37.772 30.7819 37.7097 30.5157 37.5714L21.2615 32.8C21.0245 32.6865 20.764 32.6277 20.5 32.6277C20.2361 32.6277 19.9756 32.6865 19.7386 32.8L10.4843 37.5714C10.2181 37.7097 9.91748 37.772 9.61668 37.7517C9.31589 37.7311 9.02698 37.6288 8.78289 37.4563C8.53876 37.2834 8.34923 37.0474 8.23583 36.7748C8.12247 36.5023 8.08975 36.2043 8.14147 35.9143L9.9279 25.7144C9.97318 25.4658 9.95402 25.2101 9.8722 24.9706C9.79038 24.7311 9.64843 24.5153 9.45933 24.3429L1.9622 17.2858C1.74039 17.0804 1.58441 16.8166 1.51314 16.5264C1.44187 16.2363 1.45838 15.9321 1.56065 15.6509C1.66293 15.3697 1.84659 15.1235 2.08939 14.9421C2.33219 14.7606 2.6237 14.6517 2.92862 14.6287L13.2079 13.1429C13.4674 13.1149 13.7148 13.021 13.9255 12.8706C14.1361 12.7202 14.3027 12.5186 14.4086 12.2858L19.065 3.11437C19.1919 2.84726 19.3943 2.62111 19.6486 2.46262C19.9029 2.30412 20.1983 2.21991 20.5 2.21991C20.8018 2.21991 21.0972 2.30412 21.3515 2.46262C21.6058 2.62111 21.8082 2.84726 21.935 3.11437Z" fill="#33363F" fill-opacity="0.58" stroke="#33363F" stroke-width="3" stroke-linecap="round" stroke-linejoin="round"/>
</g>
<defs>
<clipPath id="clip0_1725_6039">
<rect width="41" height="40" fill="white"/>
</clipPath>
</defs>
</svg>
