<svg width="25" height="24" viewBox="0 0 25 24" fill="none" xmlns="http://www.w3.org/2000/svg">
<g id="icon-park-outline:tree">
<path id="Vector" d="M12.5 14L15 11.5M12.5 12.5L9.5 9.5M12.5 22V9M7.0225 7C7.275 4.1965 9.631 2 12.5 2C15.369 2 17.725 4.1965 17.9775 7H18C19.1935 7 20.3381 7.47411 21.182 8.31802C22.0259 9.16193 22.5 10.3065 22.5 11.5C22.5 12.6935 22.0259 13.8381 21.182 14.682C20.3381 15.5259 19.1935 16 18 16H7C5.80653 16 4.66193 15.5259 3.81802 14.682C2.97411 13.8381 2.5 12.6935 2.5 11.5C2.5 10.3065 2.97411 9.16193 3.81802 8.31802C4.66193 7.47411 5.80653 7 7 7H7.0225Z" stroke="#48BB78" stroke-width="2" stroke-linecap="round" stroke-linejoin="round"/>
</g>
</svg>
